<?xml version="1.0" encoding="UTF-8" standalone="no"?>
<!DOCTYPE svg PUBLIC "-//W3C//DTD SVG 1.1//EN"
 "http://www.w3.org/Graphics/SVG/1.1/DTD/svg11.dtd">
<!-- Generated by graphviz version 2.47.0 (20210316.0004)
 -->
<!-- Title: dependencies Pages: 1 -->
<svg width="643pt" height="211pt"
 viewBox="0.00 0.00 643.00 211.00" xmlns="http://www.w3.org/2000/svg" xmlns:xlink="http://www.w3.org/1999/xlink">
<g id="graph0" class="graph" transform="scale(1 1) rotate(0) translate(4 207)">
<title>dependencies</title>
<polygon fill="white" stroke="transparent" points="-4,4 -4,-207 639,-207 639,4 -4,4"/>
<text text-anchor="start" x="296.51" y="-42.4" font-family="Times-12" font-weight="bold" font-size="14.00">Legend</text>
<polygon fill="#ffffb3" stroke="transparent" points="83.5,-10 83.5,-30 103.5,-30 103.5,-10 83.5,-10"/>
<text text-anchor="start" x="107.13" y="-15.4" font-family="Times-12" font-size="14.00"> &#160;Declarations</text>
<polygon fill="#8dd3c7" stroke="transparent" points="196.5,-10 196.5,-30 216.5,-30 216.5,-10 196.5,-10"/>
<text text-anchor="start" x="220.23" y="-15.4" font-family="Times-12" font-size="14.00"> &#160;Module</text>
<polygon fill="#80b1d3" stroke="transparent" points="282.5,-10 282.5,-30 302.5,-30 302.5,-10 282.5,-10"/>
<text text-anchor="start" x="306.28" y="-15.4" font-family="Times-12" font-size="14.00"> &#160;Bootstrap</text>
<polygon fill="#fdb462" stroke="transparent" points="379.5,-10 379.5,-30 399.5,-30 399.5,-10 379.5,-10"/>
<text text-anchor="start" x="403.17" y="-15.4" font-family="Times-12" font-size="14.00"> &#160;Providers</text>
<polygon fill="#fb8072" stroke="transparent" points="475.5,-10 475.5,-30 495.5,-30 495.5,-10 475.5,-10"/>
<text text-anchor="start" x="499.23" y="-15.4" font-family="Times-12" font-size="14.00"> &#160;Exports</text>
<g id="clust1" class="cluster">
<title>cluster_UserDataPageModule</title>
<polygon fill="none" stroke="black" stroke-dasharray="1,5" points="8,-70 8,-195 627,-195 627,-70 8,-70"/>
</g>
<g id="clust5" class="cluster">
<title>cluster_UserDataPageModule_imports</title>
<polygon fill="none" stroke="black" points="302,-78 302,-130 619,-130 619,-78 302,-78"/>
</g>
<g id="clust2" class="cluster">
<title>cluster_UserDataPageModule_declarations</title>
<polygon fill="none" stroke="black" points="16,-78 16,-130 294,-130 294,-78 16,-78"/>
</g>
<!-- UpdateUserComponent -->
<g id="node1" class="node">
<title>UpdateUserComponent</title>
<polygon fill="#ffffb3" stroke="black" points="286.19,-122 137.81,-122 137.81,-86 286.19,-86 286.19,-122"/>
<text text-anchor="middle" x="212" y="-99.8" font-family="Times,serif" font-size="14.00">UpdateUserComponent</text>
</g>
<!-- UserDataPageModule -->
<g id="node3" class="node">
<title>UserDataPageModule</title>
<polygon fill="#8dd3c7" stroke="black" points="376.61,-187 373.61,-191 352.61,-191 349.61,-187 237.39,-187 237.39,-151 376.61,-151 376.61,-187"/>
<text text-anchor="middle" x="307" y="-164.8" font-family="Times,serif" font-size="14.00">UserDataPageModule</text>
</g>
<!-- UpdateUserComponent&#45;&gt;UserDataPageModule -->
<g id="edge1" class="edge">
<title>UpdateUserComponent&#45;&gt;UserDataPageModule</title>
<path fill="none" stroke="black" d="M261.64,-122.11C261.64,-122.11 261.64,-140.99 261.64,-140.99"/>
<polygon fill="black" stroke="black" points="258.14,-140.99 261.64,-150.99 265.14,-140.99 258.14,-140.99"/>
</g>
<!-- UserDataPage -->
<g id="node2" class="node">
<title>UserDataPage</title>
<polygon fill="#ffffb3" stroke="black" points="120.06,-122 23.94,-122 23.94,-86 120.06,-86 120.06,-122"/>
<text text-anchor="middle" x="72" y="-99.8" font-family="Times,serif" font-size="14.00">UserDataPage</text>
</g>
<!-- UserDataPage&#45;&gt;UserDataPageModule -->
<g id="edge2" class="edge">
<title>UserDataPage&#45;&gt;UserDataPageModule</title>
<path fill="none" stroke="black" d="M72,-122.11C72,-141.34 72,-169 72,-169 72,-169 227.13,-169 227.13,-169"/>
<polygon fill="black" stroke="black" points="227.13,-172.5 237.13,-169 227.13,-165.5 227.13,-172.5"/>
</g>
<!-- SharedModule -->
<g id="node4" class="node">
<title>SharedModule</title>
<polygon fill="#8dd3c7" stroke="black" points="611.42,-122 608.42,-126 587.42,-126 584.42,-122 512.58,-122 512.58,-86 611.42,-86 611.42,-122"/>
<text text-anchor="middle" x="562" y="-99.8" font-family="Times,serif" font-size="14.00">SharedModule</text>
</g>
<!-- SharedModule&#45;&gt;UserDataPageModule -->
<g id="edge3" class="edge">
<title>SharedModule&#45;&gt;UserDataPageModule</title>
<path fill="none" stroke="black" d="M562,-122.11C562,-141.34 562,-169 562,-169 562,-169 386.68,-169 386.68,-169"/>
<polygon fill="black" stroke="black" points="386.68,-165.5 376.68,-169 386.68,-172.5 386.68,-165.5"/>
</g>
<!-- UserDataPageRoutingModule -->
<g id="node5" class="node">
<title>UserDataPageRoutingModule</title>
<polygon fill="#8dd3c7" stroke="black" points="494.23,-122 491.23,-126 470.23,-126 467.23,-122 309.77,-122 309.77,-86 494.23,-86 494.23,-122"/>
<text text-anchor="middle" x="402" y="-99.8" font-family="Times,serif" font-size="14.00">UserDataPageRoutingModule</text>
</g>
<!-- UserDataPageRoutingModule&#45;&gt;UserDataPageModule -->
<g id="edge4" class="edge">
<title>UserDataPageRoutingModule&#45;&gt;UserDataPageModule</title>
<path fill="none" stroke="black" d="M343.22,-122.11C343.22,-122.11 343.22,-140.99 343.22,-140.99"/>
<polygon fill="black" stroke="black" points="339.72,-140.99 343.22,-150.99 346.72,-140.99 339.72,-140.99"/>
</g>
</g>
</svg>
