<?xml version="1.0" encoding="UTF-8" standalone="no"?>
<!DOCTYPE svg PUBLIC "-//W3C//DTD SVG 1.1//EN"
 "http://www.w3.org/Graphics/SVG/1.1/DTD/svg11.dtd">
<!-- Generated by graphviz version 2.47.0 (20210316.0004)
 -->
<!-- Title: dependencies Pages: 1 -->
<svg width="580pt" height="284pt"
 viewBox="0.00 0.00 580.00 284.00" xmlns="http://www.w3.org/2000/svg" xmlns:xlink="http://www.w3.org/1999/xlink">
<g id="graph0" class="graph" transform="scale(1 1) rotate(0) translate(4 280)">
<title>dependencies</title>
<polygon fill="white" stroke="transparent" points="-4,4 -4,-280 576,-280 576,4 -4,4"/>
<text text-anchor="start" x="265.01" y="-42.4" font-family="Times-12" font-weight="bold" font-size="14.00">Legend</text>
<polygon fill="#ffffb3" stroke="transparent" points="52,-10 52,-30 72,-30 72,-10 52,-10"/>
<text text-anchor="start" x="75.63" y="-15.4" font-family="Times-12" font-size="14.00"> &#160;Declarations</text>
<polygon fill="#8dd3c7" stroke="transparent" points="165,-10 165,-30 185,-30 185,-10 165,-10"/>
<text text-anchor="start" x="188.73" y="-15.4" font-family="Times-12" font-size="14.00"> &#160;Module</text>
<polygon fill="#80b1d3" stroke="transparent" points="251,-10 251,-30 271,-30 271,-10 251,-10"/>
<text text-anchor="start" x="274.78" y="-15.4" font-family="Times-12" font-size="14.00"> &#160;Bootstrap</text>
<polygon fill="#fdb462" stroke="transparent" points="348,-10 348,-30 368,-30 368,-10 348,-10"/>
<text text-anchor="start" x="371.67" y="-15.4" font-family="Times-12" font-size="14.00"> &#160;Providers</text>
<polygon fill="#fb8072" stroke="transparent" points="444,-10 444,-30 464,-30 464,-10 444,-10"/>
<text text-anchor="start" x="467.73" y="-15.4" font-family="Times-12" font-size="14.00"> &#160;Exports</text>
<g id="clust1" class="cluster">
<title>cluster_AppModule</title>
<polygon fill="none" stroke="black" stroke-dasharray="1,5" points="8,-70 8,-268 564,-268 564,-70 8,-70"/>
</g>
<g id="clust2" class="cluster">
<title>cluster_AppModule_declarations</title>
<polygon fill="none" stroke="black" points="285,-78 285,-130 556,-130 556,-78 285,-78"/>
</g>
<g id="clust5" class="cluster">
<title>cluster_AppModule_imports</title>
<polygon fill="none" stroke="black" points="16,-78 16,-130 277,-130 277,-78 16,-78"/>
</g>
<g id="clust7" class="cluster">
<title>cluster_AppModule_bootstrap</title>
<polygon fill="none" stroke="black" points="220,-208 220,-260 344,-260 344,-208 220,-208"/>
</g>
<!-- AppComponent -->
<g id="node1" class="node">
<title>AppComponent</title>
<polygon fill="#ffffb3" stroke="black" points="547.94,-122 442.06,-122 442.06,-86 547.94,-86 547.94,-122"/>
<text text-anchor="middle" x="495" y="-99.8" font-family="Times,serif" font-size="14.00">AppComponent</text>
</g>
<!-- AppModule -->
<g id="node3" class="node">
<title>AppModule</title>
<polygon fill="#8dd3c7" stroke="black" points="323.66,-187 320.66,-191 299.66,-191 296.66,-187 240.34,-187 240.34,-151 323.66,-151 323.66,-187"/>
<text text-anchor="middle" x="282" y="-164.8" font-family="Times,serif" font-size="14.00">AppModule</text>
</g>
<!-- AppComponent&#45;&gt;AppModule -->
<g id="edge1" class="edge">
<title>AppComponent&#45;&gt;AppModule</title>
<path fill="none" stroke="black" d="M495,-122.11C495,-141.34 495,-169 495,-169 495,-169 333.83,-169 333.83,-169"/>
<polygon fill="black" stroke="black" points="333.83,-165.5 323.83,-169 333.83,-172.5 333.83,-165.5"/>
</g>
<!-- CapitalizeInitialPipe -->
<g id="node2" class="node">
<title>CapitalizeInitialPipe</title>
<polygon fill="#ffffb3" stroke="black" points="424.58,-122 293.42,-122 293.42,-86 424.58,-86 424.58,-122"/>
<text text-anchor="middle" x="359" y="-99.8" font-family="Times,serif" font-size="14.00">CapitalizeInitialPipe</text>
</g>
<!-- CapitalizeInitialPipe&#45;&gt;AppModule -->
<g id="edge2" class="edge">
<title>CapitalizeInitialPipe&#45;&gt;AppModule</title>
<path fill="none" stroke="black" d="M308.64,-122.11C308.64,-122.11 308.64,-140.99 308.64,-140.99"/>
<polygon fill="black" stroke="black" points="305.14,-140.99 308.64,-150.99 312.14,-140.99 305.14,-140.99"/>
</g>
<!-- AppComponent  -->
<g id="node6" class="node">
<title>AppComponent </title>
<polygon fill="#80b1d3" stroke="black" points="336.44,-252 227.56,-252 227.56,-216 336.44,-216 336.44,-252"/>
<text text-anchor="middle" x="282" y="-229.8" font-family="Times,serif" font-size="14.00">AppComponent </text>
</g>
<!-- AppModule&#45;&gt;AppComponent  -->
<g id="edge5" class="edge">
<title>AppModule&#45;&gt;AppComponent </title>
<path fill="none" stroke="black" stroke-dasharray="1,5" d="M282,-187.11C282,-187.11 282,-205.99 282,-205.99"/>
<polygon fill="black" stroke="black" points="278.5,-205.99 282,-215.99 285.5,-205.99 278.5,-205.99"/>
</g>
<!-- AppRoutingModule -->
<g id="node4" class="node">
<title>AppRoutingModule</title>
<polygon fill="#8dd3c7" stroke="black" points="269.27,-122 266.27,-126 245.27,-126 242.27,-122 140.73,-122 140.73,-86 269.27,-86 269.27,-122"/>
<text text-anchor="middle" x="205" y="-99.8" font-family="Times,serif" font-size="14.00">AppRoutingModule</text>
</g>
<!-- AppRoutingModule&#45;&gt;AppModule -->
<g id="edge3" class="edge">
<title>AppRoutingModule&#45;&gt;AppModule</title>
<path fill="none" stroke="black" d="M254.78,-122.11C254.78,-122.11 254.78,-140.99 254.78,-140.99"/>
<polygon fill="black" stroke="black" points="251.28,-140.99 254.78,-150.99 258.28,-140.99 251.28,-140.99"/>
</g>
<!-- SharedModule -->
<g id="node5" class="node">
<title>SharedModule</title>
<polygon fill="#8dd3c7" stroke="black" points="122.42,-122 119.42,-126 98.42,-126 95.42,-122 23.58,-122 23.58,-86 122.42,-86 122.42,-122"/>
<text text-anchor="middle" x="73" y="-99.8" font-family="Times,serif" font-size="14.00">SharedModule</text>
</g>
<!-- SharedModule&#45;&gt;AppModule -->
<g id="edge4" class="edge">
<title>SharedModule&#45;&gt;AppModule</title>
<path fill="none" stroke="black" d="M73,-122.11C73,-141.34 73,-169 73,-169 73,-169 230.21,-169 230.21,-169"/>
<polygon fill="black" stroke="black" points="230.21,-172.5 240.21,-169 230.21,-165.5 230.21,-172.5"/>
</g>
</g>
</svg>
