<?xml version="1.0" encoding="UTF-8" standalone="no"?>
<!DOCTYPE svg PUBLIC "-//W3C//DTD SVG 1.1//EN"
 "http://www.w3.org/Graphics/SVG/1.1/DTD/svg11.dtd">
<!-- Generated by graphviz version 2.47.0 (20210316.0004)
 -->
<!-- Title: dependencies Pages: 1 -->
<svg width="3876pt" height="360pt"
 viewBox="0.00 0.00 3876.00 360.00" xmlns="http://www.w3.org/2000/svg" xmlns:xlink="http://www.w3.org/1999/xlink">
<g id="graph0" class="graph" transform="scale(1 1) rotate(0) translate(4 356)">
<title>dependencies</title>
<polygon fill="white" stroke="transparent" points="-4,4 -4,-356 3872,-356 3872,4 -4,4"/>
<text text-anchor="start" x="1913.01" y="-42.4" font-family="Times-12" font-weight="bold" font-size="14.00">Legend</text>
<polygon fill="#ffffb3" stroke="transparent" points="1700,-10 1700,-30 1720,-30 1720,-10 1700,-10"/>
<text text-anchor="start" x="1723.63" y="-15.4" font-family="Times-12" font-size="14.00"> &#160;Declarations</text>
<polygon fill="#8dd3c7" stroke="transparent" points="1813,-10 1813,-30 1833,-30 1833,-10 1813,-10"/>
<text text-anchor="start" x="1836.73" y="-15.4" font-family="Times-12" font-size="14.00"> &#160;Module</text>
<polygon fill="#80b1d3" stroke="transparent" points="1899,-10 1899,-30 1919,-30 1919,-10 1899,-10"/>
<text text-anchor="start" x="1922.78" y="-15.4" font-family="Times-12" font-size="14.00"> &#160;Bootstrap</text>
<polygon fill="#fdb462" stroke="transparent" points="1996,-10 1996,-30 2016,-30 2016,-10 1996,-10"/>
<text text-anchor="start" x="2019.67" y="-15.4" font-family="Times-12" font-size="14.00"> &#160;Providers</text>
<polygon fill="#fb8072" stroke="transparent" points="2092,-10 2092,-30 2112,-30 2112,-10 2092,-10"/>
<text text-anchor="start" x="2115.73" y="-15.4" font-family="Times-12" font-size="14.00"> &#160;Exports</text>
<g id="clust1" class="cluster">
<title>cluster_AboutPageModule</title>
<polygon fill="none" stroke="black" stroke-dasharray="1,5" points="8,-70 8,-206 308,-206 308,-70 8,-70"/>
</g>
<g id="clust2" class="cluster">
<title>cluster_AboutPageModule_declarations</title>
<polygon fill="none" stroke="black" points="206,-78 206,-130 300,-130 300,-78 206,-78"/>
</g>
<g id="clust4" class="cluster">
<title>cluster_AboutPageModule_imports</title>
<polygon fill="none" stroke="black" points="16,-78 16,-130 198,-130 198,-78 16,-78"/>
</g>
<g id="clust14" class="cluster">
<title>cluster_AccessPageModule</title>
<polygon fill="none" stroke="black" stroke-dasharray="1,5" points="1042,-146 1042,-271 1809,-271 1809,-146 1042,-146"/>
</g>
<g id="clust15" class="cluster">
<title>cluster_AccessPageModule_declarations</title>
<polygon fill="none" stroke="black" points="1050,-154 1050,-206 1489,-206 1489,-154 1050,-154"/>
</g>
<g id="clust19" class="cluster">
<title>cluster_AccessPageModule_imports</title>
<polygon fill="none" stroke="black" points="1497,-154 1497,-206 1801,-206 1801,-154 1497,-154"/>
</g>
<g id="clust29" class="cluster">
<title>cluster_AppModule</title>
<polygon fill="none" stroke="black" stroke-dasharray="1,5" points="595,-146 595,-344 1034,-344 1034,-146 595,-146"/>
</g>
<g id="clust30" class="cluster">
<title>cluster_AppModule_declarations</title>
<polygon fill="none" stroke="black" points="755,-154 755,-206 1026,-206 1026,-154 755,-154"/>
</g>
<g id="clust33" class="cluster">
<title>cluster_AppModule_imports</title>
<polygon fill="none" stroke="black" points="603,-154 603,-206 747,-206 747,-154 603,-154"/>
</g>
<g id="clust35" class="cluster">
<title>cluster_AppModule_bootstrap</title>
<polygon fill="none" stroke="black" points="834,-284 834,-336 958,-336 958,-284 834,-284"/>
</g>
<g id="clust43" class="cluster">
<title>cluster_DataPageModule</title>
<polygon fill="none" stroke="black" stroke-dasharray="1,5" points="1817,-146 1817,-271 2288,-271 2288,-146 1817,-146"/>
</g>
<g id="clust44" class="cluster">
<title>cluster_DataPageModule_declarations</title>
<polygon fill="none" stroke="black" points="2007,-154 2007,-206 2280,-206 2280,-154 2007,-154"/>
</g>
<g id="clust47" class="cluster">
<title>cluster_DataPageModule_imports</title>
<polygon fill="none" stroke="black" points="1825,-154 1825,-206 1999,-206 1999,-154 1825,-154"/>
</g>
<g id="clust57" class="cluster">
<title>cluster_HomePageModule</title>
<polygon fill="none" stroke="black" stroke-dasharray="1,5" points="2296,-146 2296,-271 2596,-271 2596,-146 2296,-146"/>
</g>
<g id="clust58" class="cluster">
<title>cluster_HomePageModule_declarations</title>
<polygon fill="none" stroke="black" points="2494,-154 2494,-206 2588,-206 2588,-154 2494,-154"/>
</g>
<g id="clust60" class="cluster">
<title>cluster_HomePageModule_imports</title>
<polygon fill="none" stroke="black" points="2304,-154 2304,-206 2486,-206 2486,-154 2304,-154"/>
</g>
<g id="clust70" class="cluster">
<title>cluster_IncidentDataPageModule</title>
<polygon fill="none" stroke="black" stroke-dasharray="1,5" points="3156,-70 3156,-206 3532,-206 3532,-70 3156,-70"/>
</g>
<g id="clust71" class="cluster">
<title>cluster_IncidentDataPageModule_declarations</title>
<polygon fill="none" stroke="black" points="3392,-78 3392,-130 3524,-130 3524,-78 3392,-78"/>
</g>
<g id="clust73" class="cluster">
<title>cluster_IncidentDataPageModule_imports</title>
<polygon fill="none" stroke="black" points="3164,-78 3164,-130 3384,-130 3384,-78 3164,-78"/>
</g>
<g id="clust83" class="cluster">
<title>cluster_SettingsPageModule</title>
<polygon fill="none" stroke="black" stroke-dasharray="1,5" points="3540,-70 3540,-206 3860,-206 3860,-70 3540,-70"/>
</g>
<g id="clust84" class="cluster">
<title>cluster_SettingsPageModule_declarations</title>
<polygon fill="none" stroke="black" points="3748,-78 3748,-130 3852,-130 3852,-78 3748,-78"/>
</g>
<g id="clust86" class="cluster">
<title>cluster_SettingsPageModule_imports</title>
<polygon fill="none" stroke="black" points="3548,-78 3548,-130 3740,-130 3740,-78 3548,-78"/>
</g>
<g id="clust96" class="cluster">
<title>cluster_SharedModule</title>
<polygon fill="none" stroke="black" stroke-dasharray="1,5" points="316,-70 316,-138 3148,-138 3148,-70 316,-70"/>
</g>
<g id="clust97" class="cluster">
<title>cluster_SharedModule_declarations</title>
<polygon fill="none" stroke="black" points="1815,-78 1815,-130 3140,-130 3140,-78 1815,-78"/>
</g>
<g id="clust105" class="cluster">
<title>cluster_SharedModule_imports</title>
<polygon fill="none" stroke="black" points="1681,-78 1681,-130 1807,-130 1807,-78 1681,-78"/>
</g>
<g id="clust106" class="cluster">
<title>cluster_SharedModule_exports</title>
<polygon fill="none" stroke="black" points="324,-78 324,-130 1673,-130 1673,-78 324,-78"/>
</g>
<g id="clust109" class="cluster">
<title>cluster_UserDataPageModule</title>
<polygon fill="none" stroke="black" stroke-dasharray="1,5" points="2604,-146 2604,-271 3106,-271 3106,-146 2604,-146"/>
</g>
<g id="clust110" class="cluster">
<title>cluster_UserDataPageModule_declarations</title>
<polygon fill="none" stroke="black" points="2820,-154 2820,-206 3098,-206 3098,-154 2820,-154"/>
</g>
<g id="clust113" class="cluster">
<title>cluster_UserDataPageModule_imports</title>
<polygon fill="none" stroke="black" points="2612,-154 2612,-206 2812,-206 2812,-154 2612,-154"/>
</g>
<!-- AboutPage -->
<g id="node1" class="node">
<title>AboutPage</title>
<polygon fill="#ffffb3" stroke="black" points="292.21,-122 213.79,-122 213.79,-86 292.21,-86 292.21,-122"/>
<text text-anchor="middle" x="253" y="-99.8" font-family="Times,serif" font-size="14.00">AboutPage</text>
</g>
<!-- AboutPageModule -->
<g id="node2" class="node">
<title>AboutPageModule</title>
<polygon fill="#8dd3c7" stroke="black" points="233.76,-198 230.76,-202 209.76,-202 206.76,-198 112.24,-198 112.24,-162 233.76,-162 233.76,-198"/>
<text text-anchor="middle" x="173" y="-175.8" font-family="Times,serif" font-size="14.00">AboutPageModule</text>
</g>
<!-- AboutPage&#45;&gt;AboutPageModule -->
<g id="edge1" class="edge">
<title>AboutPage&#45;&gt;AboutPageModule</title>
<path fill="none" stroke="black" d="M223.89,-122.01C223.89,-122.01 223.89,-151.85 223.89,-151.85"/>
<polygon fill="black" stroke="black" points="220.39,-151.85 223.89,-161.85 227.39,-151.85 220.39,-151.85"/>
</g>
<!-- AboutPageRoutingModule -->
<g id="node3" class="node">
<title>AboutPageRoutingModule</title>
<polygon fill="#8dd3c7" stroke="black" points="190.38,-122 187.38,-126 166.38,-126 163.38,-122 23.62,-122 23.62,-86 190.38,-86 190.38,-122"/>
<text text-anchor="middle" x="107" y="-99.8" font-family="Times,serif" font-size="14.00">AboutPageRoutingModule</text>
</g>
<!-- AboutPageRoutingModule&#45;&gt;AboutPageModule -->
<g id="edge2" class="edge">
<title>AboutPageRoutingModule&#45;&gt;AboutPageModule</title>
<path fill="none" stroke="black" d="M151.28,-122.01C151.28,-122.01 151.28,-151.85 151.28,-151.85"/>
<polygon fill="black" stroke="black" points="147.78,-151.85 151.28,-161.85 154.78,-151.85 147.78,-151.85"/>
</g>
<!-- AccessPage -->
<g id="node4" class="node">
<title>AccessPage</title>
<polygon fill="#ffffb3" stroke="black" points="1140.35,-198 1057.65,-198 1057.65,-162 1140.35,-162 1140.35,-198"/>
<text text-anchor="middle" x="1099" y="-175.8" font-family="Times,serif" font-size="14.00">AccessPage</text>
</g>
<!-- AccessPageModule -->
<g id="node7" class="node">
<title>AccessPageModule</title>
<polygon fill="#8dd3c7" stroke="black" points="1471.4,-263 1468.4,-267 1447.4,-267 1444.4,-263 1344.6,-263 1344.6,-227 1471.4,-227 1471.4,-263"/>
<text text-anchor="middle" x="1408" y="-240.8" font-family="Times,serif" font-size="14.00">AccessPageModule</text>
</g>
<!-- AccessPage&#45;&gt;AccessPageModule -->
<g id="edge3" class="edge">
<title>AccessPage&#45;&gt;AccessPageModule</title>
<path fill="none" stroke="black" d="M1099,-198.28C1099,-219.32 1099,-251 1099,-251 1099,-251 1334.72,-251 1334.72,-251"/>
<polygon fill="black" stroke="black" points="1334.72,-254.5 1344.72,-251 1334.72,-247.5 1334.72,-254.5"/>
</g>
<!-- LoginFormComponent -->
<g id="node5" class="node">
<title>LoginFormComponent</title>
<polygon fill="#ffffb3" stroke="black" points="1480.61,-198 1335.39,-198 1335.39,-162 1480.61,-162 1480.61,-198"/>
<text text-anchor="middle" x="1408" y="-175.8" font-family="Times,serif" font-size="14.00">LoginFormComponent</text>
</g>
<!-- LoginFormComponent&#45;&gt;AccessPageModule -->
<g id="edge4" class="edge">
<title>LoginFormComponent&#45;&gt;AccessPageModule</title>
<path fill="none" stroke="black" d="M1408,-198.11C1408,-198.11 1408,-216.99 1408,-216.99"/>
<polygon fill="black" stroke="black" points="1404.5,-216.99 1408,-226.99 1411.5,-216.99 1404.5,-216.99"/>
</g>
<!-- RegisterFormComponent -->
<g id="node6" class="node">
<title>RegisterFormComponent</title>
<polygon fill="#ffffb3" stroke="black" points="1317.32,-198 1158.68,-198 1158.68,-162 1317.32,-162 1317.32,-198"/>
<text text-anchor="middle" x="1238" y="-175.8" font-family="Times,serif" font-size="14.00">RegisterFormComponent</text>
</g>
<!-- RegisterFormComponent&#45;&gt;AccessPageModule -->
<g id="edge5" class="edge">
<title>RegisterFormComponent&#45;&gt;AccessPageModule</title>
<path fill="none" stroke="black" d="M1238,-198.02C1238,-215.37 1238,-239 1238,-239 1238,-239 1334.7,-239 1334.7,-239"/>
<polygon fill="black" stroke="black" points="1334.7,-242.5 1344.7,-239 1334.7,-235.5 1334.7,-242.5"/>
</g>
<!-- AccessPageRoutingModule -->
<g id="node8" class="node">
<title>AccessPageRoutingModule</title>
<polygon fill="#8dd3c7" stroke="black" points="1676.52,-198 1673.52,-202 1652.52,-202 1649.52,-198 1505.48,-198 1505.48,-162 1676.52,-162 1676.52,-198"/>
<text text-anchor="middle" x="1591" y="-175.8" font-family="Times,serif" font-size="14.00">AccessPageRoutingModule</text>
</g>
<!-- AccessPageRoutingModule&#45;&gt;AccessPageModule -->
<g id="edge6" class="edge">
<title>AccessPageRoutingModule&#45;&gt;AccessPageModule</title>
<path fill="none" stroke="black" d="M1591,-198.01C1591,-214.05 1591,-235 1591,-235 1591,-235 1481.23,-235 1481.23,-235"/>
<polygon fill="black" stroke="black" points="1481.23,-231.5 1471.23,-235 1481.23,-238.5 1481.23,-231.5"/>
</g>
<!-- SharedModule -->
<g id="node9" class="node">
<title>SharedModule</title>
<polygon fill="#8dd3c7" stroke="black" points="1793.42,-198 1790.42,-202 1769.42,-202 1766.42,-198 1694.58,-198 1694.58,-162 1793.42,-162 1793.42,-198"/>
<text text-anchor="middle" x="1744" y="-175.8" font-family="Times,serif" font-size="14.00">SharedModule</text>
</g>
<!-- SharedModule&#45;&gt;AccessPageModule -->
<g id="edge7" class="edge">
<title>SharedModule&#45;&gt;AccessPageModule</title>
<path fill="none" stroke="black" d="M1751.03,-198.27C1751.03,-216.56 1751.03,-242 1751.03,-242 1751.03,-242 1481.32,-242 1481.32,-242"/>
<polygon fill="black" stroke="black" points="1481.32,-238.5 1471.32,-242 1481.32,-245.5 1481.32,-238.5"/>
</g>
<!-- AppModule -->
<g id="node12" class="node">
<title>AppModule</title>
<polygon fill="#8dd3c7" stroke="black" points="937.66,-263 934.66,-267 913.66,-267 910.66,-263 854.34,-263 854.34,-227 937.66,-227 937.66,-263"/>
<text text-anchor="middle" x="896" y="-240.8" font-family="Times,serif" font-size="14.00">AppModule</text>
</g>
<!-- SharedModule&#45;&gt;AppModule -->
<g id="edge11" class="edge">
<title>SharedModule&#45;&gt;AppModule</title>
<path fill="none" stroke="black" d="M1708.85,-198.04C1708.85,-205.75 1708.85,-213 1708.85,-213 1708.85,-213 929.31,-213 929.31,-213 929.31,-213 929.31,-216.76 929.31,-216.76"/>
<polygon fill="black" stroke="black" points="925.81,-216.76 929.31,-226.76 932.81,-216.76 925.81,-216.76"/>
</g>
<!-- DataPageModule -->
<g id="node17" class="node">
<title>DataPageModule</title>
<polygon fill="#8dd3c7" stroke="black" points="1968.69,-263 1965.69,-267 1944.69,-267 1941.69,-263 1855.31,-263 1855.31,-227 1968.69,-227 1968.69,-263"/>
<text text-anchor="middle" x="1912" y="-240.8" font-family="Times,serif" font-size="14.00">DataPageModule</text>
</g>
<!-- SharedModule&#45;&gt;DataPageModule -->
<g id="edge16" class="edge">
<title>SharedModule&#45;&gt;DataPageModule</title>
<path fill="none" stroke="black" d="M1765.09,-198.01C1765.09,-220.49 1765.09,-256 1765.09,-256 1765.09,-256 1845.2,-256 1845.2,-256"/>
<polygon fill="black" stroke="black" points="1845.2,-259.5 1855.2,-256 1845.2,-252.5 1845.2,-259.5"/>
</g>
<!-- SharedModule&#45;&gt;DataPageModule -->
<g id="edge17" class="edge">
<title>SharedModule&#45;&gt;DataPageModule</title>
<path fill="none" stroke="black" d="M1779.15,-198.13C1779.15,-218.57 1779.15,-249 1779.15,-249 1779.15,-249 1845.27,-249 1845.27,-249"/>
<polygon fill="black" stroke="black" points="1845.27,-252.5 1855.27,-249 1845.27,-245.5 1845.27,-252.5"/>
</g>
<!-- HomePageModule -->
<g id="node20" class="node">
<title>HomePageModule</title>
<polygon fill="#8dd3c7" stroke="black" points="2455.47,-263 2452.47,-267 2431.47,-267 2428.47,-263 2334.53,-263 2334.53,-227 2455.47,-227 2455.47,-263"/>
<text text-anchor="middle" x="2395" y="-240.8" font-family="Times,serif" font-size="14.00">HomePageModule</text>
</g>
<!-- SharedModule&#45;&gt;HomePageModule -->
<g id="edge20" class="edge">
<title>SharedModule&#45;&gt;HomePageModule</title>
<path fill="none" stroke="black" d="M1722.91,-198.13C1722.91,-208.71 1722.91,-220 1722.91,-220 1722.91,-220 2374.84,-220 2374.84,-220 2374.84,-220 2374.84,-220.68 2374.84,-220.68"/>
<polygon fill="black" stroke="black" points="2371.34,-216.83 2374.84,-226.83 2378.34,-216.83 2371.34,-216.83"/>
</g>
<!-- CategoriesInfoComponent  -->
<g id="node36" class="node">
<title>CategoriesInfoComponent </title>
<polygon fill="#fb8072" stroke="black" points="1665.02,-122 1496.98,-122 1496.98,-86 1665.02,-86 1665.02,-122"/>
<text text-anchor="middle" x="1581" y="-99.8" font-family="Times,serif" font-size="14.00">CategoriesInfoComponent </text>
</g>
<!-- SharedModule&#45;&gt;CategoriesInfoComponent  -->
<g id="edge34" class="edge">
<title>SharedModule&#45;&gt;CategoriesInfoComponent </title>
<path fill="none" stroke="black" stroke-dasharray="5,2" d="M1694.65,-180C1687.69,-180 1682.86,-180 1682.86,-180 1682.86,-180 1682.86,-104 1682.86,-104 1682.86,-104 1675.11,-104 1675.11,-104"/>
<polygon fill="black" stroke="black" points="1675.11,-100.5 1665.11,-104 1675.11,-107.5 1675.11,-100.5"/>
</g>
<!-- ConfirmDialogComponent  -->
<g id="node37" class="node">
<title>ConfirmDialogComponent </title>
<polygon fill="#fb8072" stroke="black" points="1479.37,-122 1308.63,-122 1308.63,-86 1479.37,-86 1479.37,-122"/>
<text text-anchor="middle" x="1394" y="-99.8" font-family="Times,serif" font-size="14.00">ConfirmDialogComponent </text>
</g>
<!-- SharedModule&#45;&gt;ConfirmDialogComponent  -->
<g id="edge35" class="edge">
<title>SharedModule&#45;&gt;ConfirmDialogComponent </title>
<path fill="none" stroke="black" stroke-dasharray="5,2" d="M1734.16,-161.72C1734.16,-146.05 1734.16,-126 1734.16,-126 1734.16,-126 1407.32,-126 1407.32,-126 1407.32,-126 1407.32,-125.62 1407.32,-125.62"/>
<polygon fill="black" stroke="black" points="1410.82,-132.17 1407.32,-122.17 1403.82,-132.17 1410.82,-132.17"/>
</g>
<!-- IncidentsCircleGraphicComponent  -->
<g id="node38" class="node">
<title>IncidentsCircleGraphicComponent </title>
<polygon fill="#fb8072" stroke="black" points="1290.94,-122 1075.06,-122 1075.06,-86 1290.94,-86 1290.94,-122"/>
<text text-anchor="middle" x="1183" y="-99.8" font-family="Times,serif" font-size="14.00">IncidentsCircleGraphicComponent </text>
</g>
<!-- SharedModule&#45;&gt;IncidentsCircleGraphicComponent  -->
<g id="edge36" class="edge">
<title>SharedModule&#45;&gt;IncidentsCircleGraphicComponent </title>
<path fill="none" stroke="black" stroke-dasharray="5,2" d="M1727.6,-161.88C1727.6,-147.22 1727.6,-129 1727.6,-129 1727.6,-129 1224.78,-129 1224.78,-129 1224.78,-129 1224.78,-128.32 1224.78,-128.32"/>
<polygon fill="black" stroke="black" points="1228.28,-132.17 1224.78,-122.17 1221.28,-132.17 1228.28,-132.17"/>
</g>
<!-- IncidentsInfoComponent  -->
<g id="node39" class="node">
<title>IncidentsInfoComponent </title>
<polygon fill="#fb8072" stroke="black" points="1057.97,-122 898.03,-122 898.03,-86 1057.97,-86 1057.97,-122"/>
<text text-anchor="middle" x="978" y="-99.8" font-family="Times,serif" font-size="14.00">IncidentsInfoComponent </text>
</g>
<!-- SharedModule&#45;&gt;IncidentsInfoComponent  -->
<g id="edge37" class="edge">
<title>SharedModule&#45;&gt;IncidentsInfoComponent </title>
<path fill="none" stroke="black" stroke-dasharray="5,2" d="M1721.03,-161.85C1721.03,-148.26 1721.03,-132 1721.03,-132 1721.03,-132 1037.65,-132 1037.65,-132 1037.65,-132 1037.65,-131.02 1037.65,-131.02"/>
<polygon fill="black" stroke="black" points="1041.15,-132.21 1037.65,-122.21 1034.15,-132.21 1041.15,-132.21"/>
</g>
<!-- PictureSelectableComponent  -->
<g id="node40" class="node">
<title>PictureSelectableComponent </title>
<polygon fill="#fb8072" stroke="black" points="880.01,-122 697.99,-122 697.99,-86 880.01,-86 880.01,-122"/>
<text text-anchor="middle" x="789" y="-99.8" font-family="Times,serif" font-size="14.00">PictureSelectableComponent </text>
</g>
<!-- SharedModule&#45;&gt;PictureSelectableComponent  -->
<g id="edge38" class="edge">
<title>SharedModule&#45;&gt;PictureSelectableComponent </title>
<path fill="none" stroke="black" stroke-dasharray="5,2" d="M1714.47,-161.96C1714.47,-149.44 1714.47,-135 1714.47,-135 1714.47,-135 821.73,-135 821.73,-135 821.73,-135 821.73,-132.03 821.73,-132.03"/>
<polygon fill="black" stroke="black" points="825.23,-132.03 821.73,-122.03 818.23,-132.03 825.23,-132.03"/>
</g>
<!-- UserCircleGraphicComponent  -->
<g id="node41" class="node">
<title>UserCircleGraphicComponent </title>
<polygon fill="#fb8072" stroke="black" points="680.05,-122 489.95,-122 489.95,-86 680.05,-86 680.05,-122"/>
<text text-anchor="middle" x="585" y="-99.8" font-family="Times,serif" font-size="14.00">UserCircleGraphicComponent </text>
</g>
<!-- SharedModule&#45;&gt;UserCircleGraphicComponent  -->
<g id="edge39" class="edge">
<title>SharedModule&#45;&gt;UserCircleGraphicComponent </title>
<path fill="none" stroke="black" stroke-dasharray="5,2" d="M1707.91,-161.94C1707.91,-150.56 1707.91,-138 1707.91,-138 1707.91,-138 645.44,-138 645.44,-138 645.44,-138 645.44,-132.19 645.44,-132.19"/>
<polygon fill="black" stroke="black" points="648.94,-132.19 645.44,-122.19 641.94,-132.19 648.94,-132.19"/>
</g>
<!-- UsersInfoComponent  -->
<g id="node42" class="node">
<title>UsersInfoComponent </title>
<polygon fill="#fb8072" stroke="black" points="472.02,-122 331.98,-122 331.98,-86 472.02,-86 472.02,-122"/>
<text text-anchor="middle" x="402" y="-99.8" font-family="Times,serif" font-size="14.00">UsersInfoComponent </text>
</g>
<!-- SharedModule&#45;&gt;UsersInfoComponent  -->
<g id="edge40" class="edge">
<title>SharedModule&#45;&gt;UsersInfoComponent </title>
<path fill="none" stroke="black" stroke-dasharray="5,2" d="M1701.35,-161.87C1701.35,-151.69 1701.35,-141 1701.35,-141 1701.35,-141 402,-141 402,-141 402,-141 402,-132.07 402,-132.07"/>
<polygon fill="black" stroke="black" points="405.5,-132.07 402,-122.07 398.5,-132.07 405.5,-132.07"/>
</g>
<!-- UserDataPageModule -->
<g id="node45" class="node">
<title>UserDataPageModule</title>
<polygon fill="#8dd3c7" stroke="black" points="2863.61,-263 2860.61,-267 2839.61,-267 2836.61,-263 2724.39,-263 2724.39,-227 2863.61,-227 2863.61,-263"/>
<text text-anchor="middle" x="2794" y="-240.8" font-family="Times,serif" font-size="14.00">UserDataPageModule</text>
</g>
<!-- SharedModule&#45;&gt;UserDataPageModule -->
<g id="edge43" class="edge">
<title>SharedModule&#45;&gt;UserDataPageModule</title>
<path fill="none" stroke="black" d="M1736.97,-198.06C1736.97,-202.49 1736.97,-206 1736.97,-206 1736.97,-206 2750.92,-206 2750.92,-206 2750.92,-206 2750.92,-216.87 2750.92,-216.87"/>
<polygon fill="black" stroke="black" points="2747.42,-216.87 2750.92,-226.87 2754.42,-216.87 2747.42,-216.87"/>
</g>
<!-- AppComponent -->
<g id="node10" class="node">
<title>AppComponent</title>
<polygon fill="#ffffb3" stroke="black" points="1017.94,-198 912.06,-198 912.06,-162 1017.94,-162 1017.94,-198"/>
<text text-anchor="middle" x="965" y="-175.8" font-family="Times,serif" font-size="14.00">AppComponent</text>
</g>
<!-- AppComponent&#45;&gt;AppModule -->
<g id="edge8" class="edge">
<title>AppComponent&#45;&gt;AppModule</title>
<path fill="none" stroke="black" d="M920.8,-198.11C920.8,-198.11 920.8,-216.99 920.8,-216.99"/>
<polygon fill="black" stroke="black" points="917.3,-216.99 920.8,-226.99 924.3,-216.99 917.3,-216.99"/>
</g>
<!-- CapitalizeInitialPipe -->
<g id="node11" class="node">
<title>CapitalizeInitialPipe</title>
<polygon fill="#ffffb3" stroke="black" points="894.58,-198 763.42,-198 763.42,-162 894.58,-162 894.58,-198"/>
<text text-anchor="middle" x="829" y="-175.8" font-family="Times,serif" font-size="14.00">CapitalizeInitialPipe</text>
</g>
<!-- CapitalizeInitialPipe&#45;&gt;AppModule -->
<g id="edge9" class="edge">
<title>CapitalizeInitialPipe&#45;&gt;AppModule</title>
<path fill="none" stroke="black" d="M874.36,-198.11C874.36,-198.11 874.36,-216.99 874.36,-216.99"/>
<polygon fill="black" stroke="black" points="870.86,-216.99 874.36,-226.99 877.86,-216.99 870.86,-216.99"/>
</g>
<!-- AppComponent  -->
<g id="node14" class="node">
<title>AppComponent </title>
<polygon fill="#80b1d3" stroke="black" points="950.44,-328 841.56,-328 841.56,-292 950.44,-292 950.44,-328"/>
<text text-anchor="middle" x="896" y="-305.8" font-family="Times,serif" font-size="14.00">AppComponent </text>
</g>
<!-- AppModule&#45;&gt;AppComponent  -->
<g id="edge12" class="edge">
<title>AppModule&#45;&gt;AppComponent </title>
<path fill="none" stroke="black" stroke-dasharray="1,5" d="M896,-263.11C896,-263.11 896,-281.99 896,-281.99"/>
<polygon fill="black" stroke="black" points="892.5,-281.99 896,-291.99 899.5,-281.99 892.5,-281.99"/>
</g>
<!-- AppRoutingModule -->
<g id="node13" class="node">
<title>AppRoutingModule</title>
<polygon fill="#8dd3c7" stroke="black" points="739.27,-198 736.27,-202 715.27,-202 712.27,-198 610.73,-198 610.73,-162 739.27,-162 739.27,-198"/>
<text text-anchor="middle" x="675" y="-175.8" font-family="Times,serif" font-size="14.00">AppRoutingModule</text>
</g>
<!-- AppRoutingModule&#45;&gt;AppModule -->
<g id="edge10" class="edge">
<title>AppRoutingModule&#45;&gt;AppModule</title>
<path fill="none" stroke="black" d="M675,-198.11C675,-217.34 675,-245 675,-245 675,-245 844.17,-245 844.17,-245"/>
<polygon fill="black" stroke="black" points="844.17,-248.5 854.17,-245 844.17,-241.5 844.17,-248.5"/>
</g>
<!-- DataPage -->
<g id="node15" class="node">
<title>DataPage</title>
<polygon fill="#ffffb3" stroke="black" points="2271.64,-198 2202.36,-198 2202.36,-162 2271.64,-162 2271.64,-198"/>
<text text-anchor="middle" x="2237" y="-175.8" font-family="Times,serif" font-size="14.00">DataPage</text>
</g>
<!-- DataPage&#45;&gt;DataPageModule -->
<g id="edge13" class="edge">
<title>DataPage&#45;&gt;DataPageModule</title>
<path fill="none" stroke="black" d="M2237,-198.28C2237,-219.32 2237,-251 2237,-251 2237,-251 1978.61,-251 1978.61,-251"/>
<polygon fill="black" stroke="black" points="1978.61,-247.5 1968.61,-251 1978.61,-254.5 1978.61,-247.5"/>
</g>
<!-- ModalCategoryComponent -->
<g id="node16" class="node">
<title>ModalCategoryComponent</title>
<polygon fill="#ffffb3" stroke="black" points="2184.7,-198 2015.3,-198 2015.3,-162 2184.7,-162 2184.7,-198"/>
<text text-anchor="middle" x="2100" y="-175.8" font-family="Times,serif" font-size="14.00">ModalCategoryComponent</text>
</g>
<!-- ModalCategoryComponent&#45;&gt;DataPageModule -->
<g id="edge14" class="edge">
<title>ModalCategoryComponent&#45;&gt;DataPageModule</title>
<path fill="none" stroke="black" d="M2100,-198.02C2100,-215.37 2100,-239 2100,-239 2100,-239 1978.66,-239 1978.66,-239"/>
<polygon fill="black" stroke="black" points="1978.66,-235.5 1968.66,-239 1978.66,-242.5 1978.66,-235.5"/>
</g>
<!-- DataPageRoutingModule -->
<g id="node18" class="node">
<title>DataPageRoutingModule</title>
<polygon fill="#8dd3c7" stroke="black" points="1991.31,-198 1988.31,-202 1967.31,-202 1964.31,-198 1832.69,-198 1832.69,-162 1991.31,-162 1991.31,-198"/>
<text text-anchor="middle" x="1912" y="-175.8" font-family="Times,serif" font-size="14.00">DataPageRoutingModule</text>
</g>
<!-- DataPageRoutingModule&#45;&gt;DataPageModule -->
<g id="edge15" class="edge">
<title>DataPageRoutingModule&#45;&gt;DataPageModule</title>
<path fill="none" stroke="black" d="M1912,-198.11C1912,-198.11 1912,-216.99 1912,-216.99"/>
<polygon fill="black" stroke="black" points="1908.5,-216.99 1912,-226.99 1915.5,-216.99 1908.5,-216.99"/>
</g>
<!-- HomePage -->
<g id="node19" class="node">
<title>HomePage</title>
<polygon fill="#ffffb3" stroke="black" points="2579.92,-198 2502.08,-198 2502.08,-162 2579.92,-162 2579.92,-198"/>
<text text-anchor="middle" x="2541" y="-175.8" font-family="Times,serif" font-size="14.00">HomePage</text>
</g>
<!-- HomePage&#45;&gt;HomePageModule -->
<g id="edge18" class="edge">
<title>HomePage&#45;&gt;HomePageModule</title>
<path fill="none" stroke="black" d="M2541,-198.11C2541,-217.34 2541,-245 2541,-245 2541,-245 2465.65,-245 2465.65,-245"/>
<polygon fill="black" stroke="black" points="2465.65,-241.5 2455.65,-245 2465.65,-248.5 2465.65,-241.5"/>
</g>
<!-- HomePageRoutingModule -->
<g id="node21" class="node">
<title>HomePageRoutingModule</title>
<polygon fill="#8dd3c7" stroke="black" points="2478.09,-198 2475.09,-202 2454.09,-202 2451.09,-198 2311.91,-198 2311.91,-162 2478.09,-162 2478.09,-198"/>
<text text-anchor="middle" x="2395" y="-175.8" font-family="Times,serif" font-size="14.00">HomePageRoutingModule</text>
</g>
<!-- HomePageRoutingModule&#45;&gt;HomePageModule -->
<g id="edge19" class="edge">
<title>HomePageRoutingModule&#45;&gt;HomePageModule</title>
<path fill="none" stroke="black" d="M2415.16,-198.11C2415.16,-198.11 2415.16,-216.99 2415.16,-216.99"/>
<polygon fill="black" stroke="black" points="2411.66,-216.99 2415.16,-226.99 2418.66,-216.99 2411.66,-216.99"/>
</g>
<!-- IncidentDataPage -->
<g id="node22" class="node">
<title>IncidentDataPage</title>
<polygon fill="#ffffb3" stroke="black" points="3515.51,-122 3400.49,-122 3400.49,-86 3515.51,-86 3515.51,-122"/>
<text text-anchor="middle" x="3458" y="-99.8" font-family="Times,serif" font-size="14.00">IncidentDataPage</text>
</g>
<!-- IncidentDataPageModule -->
<g id="node23" class="node">
<title>IncidentDataPageModule</title>
<polygon fill="#8dd3c7" stroke="black" points="3438.56,-198 3435.56,-202 3414.56,-202 3411.56,-198 3279.44,-198 3279.44,-162 3438.56,-162 3438.56,-198"/>
<text text-anchor="middle" x="3359" y="-175.8" font-family="Times,serif" font-size="14.00">IncidentDataPageModule</text>
</g>
<!-- IncidentDataPage&#45;&gt;IncidentDataPageModule -->
<g id="edge21" class="edge">
<title>IncidentDataPage&#45;&gt;IncidentDataPageModule</title>
<path fill="none" stroke="black" d="M3419.39,-122.01C3419.39,-122.01 3419.39,-151.85 3419.39,-151.85"/>
<polygon fill="black" stroke="black" points="3415.89,-151.85 3419.39,-161.85 3422.89,-151.85 3415.89,-151.85"/>
</g>
<!-- IncidentDataPageRoutingModule -->
<g id="node24" class="node">
<title>IncidentDataPageRoutingModule</title>
<polygon fill="#8dd3c7" stroke="black" points="3376.18,-122 3373.18,-126 3352.18,-126 3349.18,-122 3171.82,-122 3171.82,-86 3376.18,-86 3376.18,-122"/>
<text text-anchor="middle" x="3274" y="-99.8" font-family="Times,serif" font-size="14.00">IncidentDataPageRoutingModule</text>
</g>
<!-- IncidentDataPageRoutingModule&#45;&gt;IncidentDataPageModule -->
<g id="edge22" class="edge">
<title>IncidentDataPageRoutingModule&#45;&gt;IncidentDataPageModule</title>
<path fill="none" stroke="black" d="M3327.78,-122.01C3327.78,-122.01 3327.78,-151.85 3327.78,-151.85"/>
<polygon fill="black" stroke="black" points="3324.28,-151.85 3327.78,-161.85 3331.28,-151.85 3324.28,-151.85"/>
</g>
<!-- SettingsPage -->
<g id="node25" class="node">
<title>SettingsPage</title>
<polygon fill="#ffffb3" stroke="black" points="3844.33,-122 3755.67,-122 3755.67,-86 3844.33,-86 3844.33,-122"/>
<text text-anchor="middle" x="3800" y="-99.8" font-family="Times,serif" font-size="14.00">SettingsPage</text>
</g>
<!-- SettingsPageModule -->
<g id="node26" class="node">
<title>SettingsPageModule</title>
<polygon fill="#8dd3c7" stroke="black" points="3780.88,-198 3777.88,-202 3756.88,-202 3753.88,-198 3649.12,-198 3649.12,-162 3780.88,-162 3780.88,-198"/>
<text text-anchor="middle" x="3715" y="-175.8" font-family="Times,serif" font-size="14.00">SettingsPageModule</text>
</g>
<!-- SettingsPage&#45;&gt;SettingsPageModule -->
<g id="edge23" class="edge">
<title>SettingsPage&#45;&gt;SettingsPageModule</title>
<path fill="none" stroke="black" d="M3768.39,-122.01C3768.39,-122.01 3768.39,-151.85 3768.39,-151.85"/>
<polygon fill="black" stroke="black" points="3764.89,-151.85 3768.39,-161.85 3771.89,-151.85 3764.89,-151.85"/>
</g>
<!-- SettingsPageRoutingModule -->
<g id="node27" class="node">
<title>SettingsPageRoutingModule</title>
<polygon fill="#8dd3c7" stroke="black" points="3732.49,-122 3729.49,-126 3708.49,-126 3705.49,-122 3555.51,-122 3555.51,-86 3732.49,-86 3732.49,-122"/>
<text text-anchor="middle" x="3644" y="-99.8" font-family="Times,serif" font-size="14.00">SettingsPageRoutingModule</text>
</g>
<!-- SettingsPageRoutingModule&#45;&gt;SettingsPageModule -->
<g id="edge24" class="edge">
<title>SettingsPageRoutingModule&#45;&gt;SettingsPageModule</title>
<path fill="none" stroke="black" d="M3690.78,-122.01C3690.78,-122.01 3690.78,-151.85 3690.78,-151.85"/>
<polygon fill="black" stroke="black" points="3687.28,-151.85 3690.78,-161.85 3694.28,-151.85 3687.28,-151.85"/>
</g>
<!-- CategoriesInfoComponent -->
<g id="node28" class="node">
<title>CategoriesInfoComponent</title>
<polygon fill="#ffffb3" stroke="black" points="3132.02,-122 2967.98,-122 2967.98,-86 3132.02,-86 3132.02,-122"/>
<text text-anchor="middle" x="3050" y="-99.8" font-family="Times,serif" font-size="14.00">CategoriesInfoComponent</text>
</g>
<!-- CategoriesInfoComponent&#45;&gt;SharedModule -->
<g id="edge25" class="edge">
<title>CategoriesInfoComponent&#45;&gt;SharedModule</title>
<path fill="none" stroke="black" d="M3028.92,-122.01C3028.92,-138.05 3028.92,-159 3028.92,-159 3028.92,-159 1786.65,-159 1786.65,-159 1786.65,-159 1786.65,-159.29 1786.65,-159.29"/>
<polygon fill="black" stroke="black" points="1783.15,-151.92 1786.65,-161.92 1790.15,-151.92 1783.15,-151.92"/>
</g>
<!-- ConfirmDialogComponent -->
<g id="node29" class="node">
<title>ConfirmDialogComponent</title>
<polygon fill="#ffffb3" stroke="black" points="2949.37,-122 2782.63,-122 2782.63,-86 2949.37,-86 2949.37,-122"/>
<text text-anchor="middle" x="2866" y="-99.8" font-family="Times,serif" font-size="14.00">ConfirmDialogComponent</text>
</g>
<!-- ConfirmDialogComponent&#45;&gt;SharedModule -->
<g id="edge26" class="edge">
<title>ConfirmDialogComponent&#45;&gt;SharedModule</title>
<path fill="none" stroke="black" d="M2793.46,-122.19C2793.46,-137.18 2793.46,-156 2793.46,-156 2793.46,-156 1780.09,-156 1780.09,-156 1780.09,-156 1780.09,-156.58 1780.09,-156.58"/>
<polygon fill="black" stroke="black" points="1776.59,-151.81 1780.09,-161.81 1783.59,-151.81 1776.59,-151.81"/>
</g>
<!-- IncidentsCircleGraphicComponent -->
<g id="node30" class="node">
<title>IncidentsCircleGraphicComponent</title>
<polygon fill="#ffffb3" stroke="black" points="2764.94,-122 2553.06,-122 2553.06,-86 2764.94,-86 2764.94,-122"/>
<text text-anchor="middle" x="2659" y="-99.8" font-family="Times,serif" font-size="14.00">IncidentsCircleGraphicComponent</text>
</g>
<!-- IncidentsCircleGraphicComponent&#45;&gt;SharedModule -->
<g id="edge27" class="edge">
<title>IncidentsCircleGraphicComponent&#45;&gt;SharedModule</title>
<path fill="none" stroke="black" d="M2566.37,-122.25C2566.37,-136.18 2566.37,-153 2566.37,-153 2566.37,-153 1773.53,-153 1773.53,-153 1773.53,-153 1773.53,-153.88 1773.53,-153.88"/>
<polygon fill="black" stroke="black" points="1770.03,-151.84 1773.53,-161.84 1777.03,-151.84 1770.03,-151.84"/>
</g>
<!-- IncidentsInfoComponent -->
<g id="node31" class="node">
<title>IncidentsInfoComponent</title>
<polygon fill="#ffffb3" stroke="black" points="2534.97,-122 2379.03,-122 2379.03,-86 2534.97,-86 2534.97,-122"/>
<text text-anchor="middle" x="2457" y="-99.8" font-family="Times,serif" font-size="14.00">IncidentsInfoComponent</text>
</g>
<!-- IncidentsInfoComponent&#45;&gt;SharedModule -->
<g id="edge28" class="edge">
<title>IncidentsInfoComponent&#45;&gt;SharedModule</title>
<path fill="none" stroke="black" d="M2428.53,-122.18C2428.53,-135.04 2428.53,-150 2428.53,-150 2428.53,-150 1766.97,-150 1766.97,-150 1766.97,-150 1766.97,-151.86 1766.97,-151.86"/>
<polygon fill="black" stroke="black" points="1763.47,-151.86 1766.97,-161.86 1770.47,-151.86 1763.47,-151.86"/>
</g>
<!-- PictureSelectableComponent -->
<g id="node32" class="node">
<title>PictureSelectableComponent</title>
<polygon fill="#ffffb3" stroke="black" points="2361.01,-122 2182.99,-122 2182.99,-86 2361.01,-86 2361.01,-122"/>
<text text-anchor="middle" x="2272" y="-99.8" font-family="Times,serif" font-size="14.00">PictureSelectableComponent</text>
</g>
<!-- PictureSelectableComponent&#45;&gt;SharedModule -->
<g id="edge29" class="edge">
<title>PictureSelectableComponent&#45;&gt;SharedModule</title>
<path fill="none" stroke="black" d="M2193.39,-122.49C2193.39,-134.14 2193.39,-147 2193.39,-147 2193.39,-147 1760.4,-147 1760.4,-147 1760.4,-147 1760.4,-151.96 1760.4,-151.96"/>
<polygon fill="black" stroke="black" points="1756.9,-151.96 1760.4,-161.96 1763.9,-151.96 1756.9,-151.96"/>
</g>
<!-- UserCircleGraphicComponent -->
<g id="node33" class="node">
<title>UserCircleGraphicComponent</title>
<polygon fill="#ffffb3" stroke="black" points="2164.55,-122 1977.45,-122 1977.45,-86 2164.55,-86 2164.55,-122"/>
<text text-anchor="middle" x="2071" y="-99.8" font-family="Times,serif" font-size="14.00">UserCircleGraphicComponent</text>
</g>
<!-- UserCircleGraphicComponent&#45;&gt;SharedModule -->
<g id="edge30" class="edge">
<title>UserCircleGraphicComponent&#45;&gt;SharedModule</title>
<path fill="none" stroke="black" d="M1984.31,-122.13C1984.31,-132.71 1984.31,-144 1984.31,-144 1984.31,-144 1753.84,-144 1753.84,-144 1753.84,-144 1753.84,-151.58 1753.84,-151.58"/>
<polygon fill="black" stroke="black" points="1750.34,-151.58 1753.84,-161.58 1757.34,-151.58 1750.34,-151.58"/>
</g>
<!-- UsersInfoComponent -->
<g id="node34" class="node">
<title>UsersInfoComponent</title>
<polygon fill="#ffffb3" stroke="black" points="1959.03,-122 1822.97,-122 1822.97,-86 1959.03,-86 1959.03,-122"/>
<text text-anchor="middle" x="1891" y="-99.8" font-family="Times,serif" font-size="14.00">UsersInfoComponent</text>
</g>
<!-- UsersInfoComponent&#45;&gt;SharedModule -->
<g id="edge31" class="edge">
<title>UsersInfoComponent&#45;&gt;SharedModule</title>
<path fill="none" stroke="black" d="M1827.79,-122.01C1827.79,-144.49 1827.79,-180 1827.79,-180 1827.79,-180 1803.23,-180 1803.23,-180"/>
<polygon fill="black" stroke="black" points="1803.23,-176.5 1793.23,-180 1803.23,-183.5 1803.23,-176.5"/>
</g>
<!-- ShortenTextPipe -->
<g id="node35" class="node">
<title>ShortenTextPipe</title>
<polygon fill="#8dd3c7" stroke="black" points="1799.09,-122 1796.09,-126 1775.09,-126 1772.09,-122 1688.91,-122 1688.91,-86 1799.09,-86 1799.09,-122"/>
<text text-anchor="middle" x="1744" y="-99.8" font-family="Times,serif" font-size="14.00">ShortenTextPipe</text>
</g>
<!-- ShortenTextPipe&#45;&gt;SharedModule -->
<g id="edge32" class="edge">
<title>ShortenTextPipe&#45;&gt;SharedModule</title>
<path fill="none" stroke="black" d="M1740.72,-122.01C1740.72,-122.01 1740.72,-151.85 1740.72,-151.85"/>
<polygon fill="black" stroke="black" points="1737.22,-151.85 1740.72,-161.85 1744.22,-151.85 1737.22,-151.85"/>
</g>
<!-- ShortenTextPipe&#45;&gt;SharedModule -->
<g id="edge33" class="edge">
<title>ShortenTextPipe&#45;&gt;SharedModule</title>
<path fill="none" stroke="black" d="M1747.28,-122.01C1747.28,-122.01 1747.28,-151.85 1747.28,-151.85"/>
<polygon fill="black" stroke="black" points="1743.78,-151.85 1747.28,-161.85 1750.78,-151.85 1743.78,-151.85"/>
</g>
<!-- UpdateUserComponent -->
<g id="node43" class="node">
<title>UpdateUserComponent</title>
<polygon fill="#ffffb3" stroke="black" points="3090.19,-198 2941.81,-198 2941.81,-162 3090.19,-162 3090.19,-198"/>
<text text-anchor="middle" x="3016" y="-175.8" font-family="Times,serif" font-size="14.00">UpdateUserComponent</text>
</g>
<!-- UpdateUserComponent&#45;&gt;UserDataPageModule -->
<g id="edge41" class="edge">
<title>UpdateUserComponent&#45;&gt;UserDataPageModule</title>
<path fill="none" stroke="black" d="M3016,-198.11C3016,-217.34 3016,-245 3016,-245 3016,-245 2873.63,-245 2873.63,-245"/>
<polygon fill="black" stroke="black" points="2873.63,-241.5 2863.63,-245 2873.63,-248.5 2873.63,-241.5"/>
</g>
<!-- UserDataPage -->
<g id="node44" class="node">
<title>UserDataPage</title>
<polygon fill="#ffffb3" stroke="black" points="2924.06,-198 2827.94,-198 2827.94,-162 2924.06,-162 2924.06,-198"/>
<text text-anchor="middle" x="2876" y="-175.8" font-family="Times,serif" font-size="14.00">UserDataPage</text>
</g>
<!-- UserDataPage&#45;&gt;UserDataPageModule -->
<g id="edge42" class="edge">
<title>UserDataPage&#45;&gt;UserDataPageModule</title>
<path fill="none" stroke="black" d="M2845.89,-198.11C2845.89,-198.11 2845.89,-216.99 2845.89,-216.99"/>
<polygon fill="black" stroke="black" points="2842.39,-216.99 2845.89,-226.99 2849.39,-216.99 2842.39,-216.99"/>
</g>
<!-- UserDataPageRoutingModule -->
<g id="node46" class="node">
<title>UserDataPageRoutingModule</title>
<polygon fill="#8dd3c7" stroke="black" points="2804.23,-198 2801.23,-202 2780.23,-202 2777.23,-198 2619.77,-198 2619.77,-162 2804.23,-162 2804.23,-198"/>
<text text-anchor="middle" x="2712" y="-175.8" font-family="Times,serif" font-size="14.00">UserDataPageRoutingModule</text>
</g>
<!-- UserDataPageRoutingModule&#45;&gt;UserDataPageModule -->
<g id="edge44" class="edge">
<title>UserDataPageRoutingModule&#45;&gt;UserDataPageModule</title>
<path fill="none" stroke="black" d="M2777.64,-198.11C2777.64,-198.11 2777.64,-216.99 2777.64,-216.99"/>
<polygon fill="black" stroke="black" points="2774.14,-216.99 2777.64,-226.99 2781.14,-216.99 2774.14,-216.99"/>
</g>
</g>
</svg>
