<?xml version="1.0" encoding="UTF-8" standalone="no"?>
<!DOCTYPE svg PUBLIC "-//W3C//DTD SVG 1.1//EN"
 "http://www.w3.org/Graphics/SVG/1.1/DTD/svg11.dtd">
<!-- Generated by graphviz version 2.47.0 (20210316.0004)
 -->
<!-- Title: dependencies Pages: 1 -->
<svg width="1931pt" height="211pt"
 viewBox="0.00 0.00 1931.00 211.00" xmlns="http://www.w3.org/2000/svg" xmlns:xlink="http://www.w3.org/1999/xlink">
<g id="graph0" class="graph" transform="scale(1 1) rotate(0) translate(4 207)">
<title>dependencies</title>
<polygon fill="white" stroke="transparent" points="-4,4 -4,-207 1927,-207 1927,4 -4,4"/>
<text text-anchor="start" x="940.51" y="-42.4" font-family="Times-12" font-weight="bold" font-size="14.00">Legend</text>
<polygon fill="#ffffb3" stroke="transparent" points="727.5,-10 727.5,-30 747.5,-30 747.5,-10 727.5,-10"/>
<text text-anchor="start" x="751.13" y="-15.4" font-family="Times-12" font-size="14.00"> &#160;Declarations</text>
<polygon fill="#8dd3c7" stroke="transparent" points="840.5,-10 840.5,-30 860.5,-30 860.5,-10 840.5,-10"/>
<text text-anchor="start" x="864.23" y="-15.4" font-family="Times-12" font-size="14.00"> &#160;Module</text>
<polygon fill="#80b1d3" stroke="transparent" points="926.5,-10 926.5,-30 946.5,-30 946.5,-10 926.5,-10"/>
<text text-anchor="start" x="950.28" y="-15.4" font-family="Times-12" font-size="14.00"> &#160;Bootstrap</text>
<polygon fill="#fdb462" stroke="transparent" points="1023.5,-10 1023.5,-30 1043.5,-30 1043.5,-10 1023.5,-10"/>
<text text-anchor="start" x="1047.17" y="-15.4" font-family="Times-12" font-size="14.00"> &#160;Providers</text>
<polygon fill="#fb8072" stroke="transparent" points="1119.5,-10 1119.5,-30 1139.5,-30 1139.5,-10 1119.5,-10"/>
<text text-anchor="start" x="1143.23" y="-15.4" font-family="Times-12" font-size="14.00"> &#160;Exports</text>
<g id="clust1" class="cluster">
<title>cluster_HomePageModule</title>
<polygon fill="none" stroke="black" stroke-dasharray="1,5" points="8,-70 8,-195 1915,-195 1915,-70 8,-70"/>
</g>
<g id="clust12" class="cluster">
<title>cluster_HomePageModule_imports</title>
<polygon fill="none" stroke="black" points="1609,-78 1609,-130 1907,-130 1907,-78 1609,-78"/>
</g>
<g id="clust2" class="cluster">
<title>cluster_HomePageModule_declarations</title>
<polygon fill="none" stroke="black" points="16,-78 16,-130 1601,-130 1601,-78 16,-78"/>
</g>
<!-- CategorySelectableComponent -->
<g id="node1" class="node">
<title>CategorySelectableComponent</title>
<polygon fill="#ffffb3" stroke="black" points="1593.18,-122 1402.82,-122 1402.82,-86 1593.18,-86 1593.18,-122"/>
<text text-anchor="middle" x="1498" y="-99.8" font-family="Times,serif" font-size="14.00">CategorySelectableComponent</text>
</g>
<!-- HomePageModule -->
<g id="node10" class="node">
<title>HomePageModule</title>
<polygon fill="#8dd3c7" stroke="black" points="991.47,-187 988.47,-191 967.47,-191 964.47,-187 870.53,-187 870.53,-151 991.47,-151 991.47,-187"/>
<text text-anchor="middle" x="931" y="-164.8" font-family="Times,serif" font-size="14.00">HomePageModule</text>
</g>
<!-- CategorySelectableComponent&#45;&gt;HomePageModule -->
<g id="edge1" class="edge">
<title>CategorySelectableComponent&#45;&gt;HomePageModule</title>
<path fill="none" stroke="black" d="M1498,-122.11C1498,-141.34 1498,-169 1498,-169 1498,-169 1001.68,-169 1001.68,-169"/>
<polygon fill="black" stroke="black" points="1001.68,-165.5 991.68,-169 1001.68,-172.5 1001.68,-165.5"/>
</g>
<!-- CategorySelectableMobileComponent -->
<g id="node2" class="node">
<title>CategorySelectableMobileComponent</title>
<polygon fill="#ffffb3" stroke="black" points="1385.12,-122 1154.88,-122 1154.88,-86 1385.12,-86 1385.12,-122"/>
<text text-anchor="middle" x="1270" y="-99.8" font-family="Times,serif" font-size="14.00">CategorySelectableMobileComponent</text>
</g>
<!-- CategorySelectableMobileComponent&#45;&gt;HomePageModule -->
<g id="edge2" class="edge">
<title>CategorySelectableMobileComponent&#45;&gt;HomePageModule</title>
<path fill="none" stroke="black" d="M1270,-122.02C1270,-139.37 1270,-163 1270,-163 1270,-163 1001.61,-163 1001.61,-163"/>
<polygon fill="black" stroke="black" points="1001.61,-159.5 991.61,-163 1001.61,-166.5 1001.61,-159.5"/>
</g>
<!-- FilterComponent -->
<g id="node3" class="node">
<title>FilterComponent</title>
<polygon fill="#ffffb3" stroke="black" points="1136.66,-122 1025.34,-122 1025.34,-86 1136.66,-86 1136.66,-122"/>
<text text-anchor="middle" x="1081" y="-99.8" font-family="Times,serif" font-size="14.00">FilterComponent</text>
</g>
<!-- FilterComponent&#45;&gt;HomePageModule -->
<g id="edge3" class="edge">
<title>FilterComponent&#45;&gt;HomePageModule</title>
<path fill="none" stroke="black" d="M1081,-122.24C1081,-137.57 1081,-157 1081,-157 1081,-157 1001.58,-157 1001.58,-157"/>
<polygon fill="black" stroke="black" points="1001.58,-153.5 991.58,-157 1001.58,-160.5 1001.58,-153.5"/>
</g>
<!-- FilterMobileComponent -->
<g id="node4" class="node">
<title>FilterMobileComponent</title>
<polygon fill="#ffffb3" stroke="black" points="1007.1,-122 854.9,-122 854.9,-86 1007.1,-86 1007.1,-122"/>
<text text-anchor="middle" x="931" y="-99.8" font-family="Times,serif" font-size="14.00">FilterMobileComponent</text>
</g>
<!-- FilterMobileComponent&#45;&gt;HomePageModule -->
<g id="edge4" class="edge">
<title>FilterMobileComponent&#45;&gt;HomePageModule</title>
<path fill="none" stroke="black" d="M931,-122.11C931,-122.11 931,-140.99 931,-140.99"/>
<polygon fill="black" stroke="black" points="927.5,-140.99 931,-150.99 934.5,-140.99 927.5,-140.99"/>
</g>
<!-- HomePage -->
<g id="node5" class="node">
<title>HomePage</title>
<polygon fill="#ffffb3" stroke="black" points="836.92,-122 759.08,-122 759.08,-86 836.92,-86 836.92,-122"/>
<text text-anchor="middle" x="798" y="-99.8" font-family="Times,serif" font-size="14.00">HomePage</text>
</g>
<!-- HomePage&#45;&gt;HomePageModule -->
<g id="edge5" class="edge">
<title>HomePage&#45;&gt;HomePageModule</title>
<path fill="none" stroke="black" d="M798,-122.24C798,-137.57 798,-157 798,-157 798,-157 860.34,-157 860.34,-157"/>
<polygon fill="black" stroke="black" points="860.34,-160.5 870.34,-157 860.34,-153.5 860.34,-160.5"/>
</g>
<!-- ItemCategoryComponent -->
<g id="node6" class="node">
<title>ItemCategoryComponent</title>
<polygon fill="#ffffb3" stroke="black" points="741.31,-122 582.69,-122 582.69,-86 741.31,-86 741.31,-122"/>
<text text-anchor="middle" x="662" y="-99.8" font-family="Times,serif" font-size="14.00">ItemCategoryComponent</text>
</g>
<!-- ItemCategoryComponent&#45;&gt;HomePageModule -->
<g id="edge6" class="edge">
<title>ItemCategoryComponent&#45;&gt;HomePageModule</title>
<path fill="none" stroke="black" d="M662,-122.02C662,-139.37 662,-163 662,-163 662,-163 860.3,-163 860.3,-163"/>
<polygon fill="black" stroke="black" points="860.3,-166.5 870.3,-163 860.3,-159.5 860.3,-166.5"/>
</g>
<!-- ItemUserComponent -->
<g id="node7" class="node">
<title>ItemUserComponent</title>
<polygon fill="#ffffb3" stroke="black" points="564.92,-122 431.08,-122 431.08,-86 564.92,-86 564.92,-122"/>
<text text-anchor="middle" x="498" y="-99.8" font-family="Times,serif" font-size="14.00">ItemUserComponent</text>
</g>
<!-- ItemUserComponent&#45;&gt;HomePageModule -->
<g id="edge7" class="edge">
<title>ItemUserComponent&#45;&gt;HomePageModule</title>
<path fill="none" stroke="black" d="M498,-122.11C498,-141.34 498,-169 498,-169 498,-169 860.34,-169 860.34,-169"/>
<polygon fill="black" stroke="black" points="860.34,-172.5 870.34,-169 860.34,-165.5 860.34,-172.5"/>
</g>
<!-- UserSelectableComponent -->
<g id="node8" class="node">
<title>UserSelectableComponent</title>
<polygon fill="#ffffb3" stroke="black" points="413.79,-122 248.21,-122 248.21,-86 413.79,-86 413.79,-122"/>
<text text-anchor="middle" x="331" y="-99.8" font-family="Times,serif" font-size="14.00">UserSelectableComponent</text>
</g>
<!-- UserSelectableComponent&#45;&gt;HomePageModule -->
<g id="edge8" class="edge">
<title>UserSelectableComponent&#45;&gt;HomePageModule</title>
<path fill="none" stroke="black" d="M331,-122.28C331,-143.32 331,-175 331,-175 331,-175 860.44,-175 860.44,-175"/>
<polygon fill="black" stroke="black" points="860.45,-178.5 870.44,-175 860.44,-171.5 860.45,-178.5"/>
</g>
<!-- UserSelectableMobileComponent -->
<g id="node9" class="node">
<title>UserSelectableMobileComponent</title>
<polygon fill="#ffffb3" stroke="black" points="229.73,-122 24.27,-122 24.27,-86 229.73,-86 229.73,-122"/>
<text text-anchor="middle" x="127" y="-99.8" font-family="Times,serif" font-size="14.00">UserSelectableMobileComponent</text>
</g>
<!-- UserSelectableMobileComponent&#45;&gt;HomePageModule -->
<g id="edge9" class="edge">
<title>UserSelectableMobileComponent&#45;&gt;HomePageModule</title>
<path fill="none" stroke="black" d="M127,-122.09C127,-145.13 127,-182 127,-182 127,-182 860.24,-182 860.24,-182"/>
<polygon fill="black" stroke="black" points="860.24,-185.5 870.24,-182 860.24,-178.5 860.24,-185.5"/>
</g>
<!-- HomePageRoutingModule -->
<g id="node11" class="node">
<title>HomePageRoutingModule</title>
<polygon fill="#8dd3c7" stroke="black" points="1899.09,-122 1896.09,-126 1875.09,-126 1872.09,-122 1732.91,-122 1732.91,-86 1899.09,-86 1899.09,-122"/>
<text text-anchor="middle" x="1816" y="-99.8" font-family="Times,serif" font-size="14.00">HomePageRoutingModule</text>
</g>
<!-- HomePageRoutingModule&#45;&gt;HomePageModule -->
<g id="edge10" class="edge">
<title>HomePageRoutingModule&#45;&gt;HomePageModule</title>
<path fill="none" stroke="black" d="M1816,-122.09C1816,-145.13 1816,-182 1816,-182 1816,-182 1001.48,-182 1001.48,-182"/>
<polygon fill="black" stroke="black" points="1001.48,-178.5 991.48,-182 1001.48,-185.5 1001.48,-178.5"/>
</g>
<!-- SharedModule -->
<g id="node12" class="node">
<title>SharedModule</title>
<polygon fill="#8dd3c7" stroke="black" points="1715.42,-122 1712.42,-126 1691.42,-126 1688.42,-122 1616.58,-122 1616.58,-86 1715.42,-86 1715.42,-122"/>
<text text-anchor="middle" x="1666" y="-99.8" font-family="Times,serif" font-size="14.00">SharedModule</text>
</g>
<!-- SharedModule&#45;&gt;HomePageModule -->
<g id="edge11" class="edge">
<title>SharedModule&#45;&gt;HomePageModule</title>
<path fill="none" stroke="black" d="M1666,-122.28C1666,-143.32 1666,-175 1666,-175 1666,-175 1001.77,-175 1001.77,-175"/>
<polygon fill="black" stroke="black" points="1001.77,-171.5 991.77,-175 1001.77,-178.5 1001.77,-171.5"/>
</g>
</g>
</svg>
