<?xml version="1.0" encoding="UTF-8" standalone="no"?>
<!DOCTYPE svg PUBLIC "-//W3C//DTD SVG 1.1//EN"
 "http://www.w3.org/Graphics/SVG/1.1/DTD/svg11.dtd">
<!-- Generated by graphviz version 2.47.0 (20210316.0004)
 -->
<!-- Title: dependencies Pages: 1 -->
<svg width="1931pt" height="211pt"
 viewBox="0.00 0.00 1931.00 211.00" xmlns="http://www.w3.org/2000/svg" xmlns:xlink="http://www.w3.org/1999/xlink">
<g id="graph0" class="graph" transform="scale(1 1) rotate(0) translate(4 207)">
<title>dependencies</title>
<polygon fill="white" stroke="transparent" points="-4,4 -4,-207 1927,-207 1927,4 -4,4"/>
<text text-anchor="start" x="940.51" y="-42.4" font-family="Times-12" font-weight="bold" font-size="14.00">Legend</text>
<polygon fill="#ffffb3" stroke="transparent" points="727.5,-10 727.5,-30 747.5,-30 747.5,-10 727.5,-10"/>
<text text-anchor="start" x="751.13" y="-15.4" font-family="Times-12" font-size="14.00"> &#160;Declarations</text>
<polygon fill="#8dd3c7" stroke="transparent" points="840.5,-10 840.5,-30 860.5,-30 860.5,-10 840.5,-10"/>
<text text-anchor="start" x="864.23" y="-15.4" font-family="Times-12" font-size="14.00"> &#160;Module</text>
<polygon fill="#80b1d3" stroke="transparent" points="926.5,-10 926.5,-30 946.5,-30 946.5,-10 926.5,-10"/>
<text text-anchor="start" x="950.28" y="-15.4" font-family="Times-12" font-size="14.00"> &#160;Bootstrap</text>
<polygon fill="#fdb462" stroke="transparent" points="1023.5,-10 1023.5,-30 1043.5,-30 1043.5,-10 1023.5,-10"/>
<text text-anchor="start" x="1047.17" y="-15.4" font-family="Times-12" font-size="14.00"> &#160;Providers</text>
<polygon fill="#fb8072" stroke="transparent" points="1119.5,-10 1119.5,-30 1139.5,-30 1139.5,-10 1119.5,-10"/>
<text text-anchor="start" x="1143.23" y="-15.4" font-family="Times-12" font-size="14.00"> &#160;Exports</text>
<g id="clust1" class="cluster">
<title>cluster_HomePageModule</title>
<polygon fill="none" stroke="black" stroke-dasharray="1,5" points="8,-70 8,-195 1915,-195 1915,-70 8,-70"/>
</g>
<g id="clust2" class="cluster">
<title>cluster_HomePageModule_declarations</title>
<polygon fill="none" stroke="black" points="322,-78 322,-130 1907,-130 1907,-78 322,-78"/>
</g>
<g id="clust12" class="cluster">
<title>cluster_HomePageModule_imports</title>
<polygon fill="none" stroke="black" points="16,-78 16,-130 314,-130 314,-78 16,-78"/>
</g>
<!-- CategorySelectableComponent -->
<g id="node1" class="node">
<title>CategorySelectableComponent</title>
<polygon fill="#ffffb3" stroke="black" points="1899.18,-122 1708.82,-122 1708.82,-86 1899.18,-86 1899.18,-122"/>
<text text-anchor="middle" x="1804" y="-99.8" font-family="Times,serif" font-size="14.00">CategorySelectableComponent</text>
</g>
<!-- HomePageModule -->
<g id="node10" class="node">
<title>HomePageModule</title>
<polygon fill="#8dd3c7" stroke="black" points="1028.47,-187 1025.47,-191 1004.47,-191 1001.47,-187 907.53,-187 907.53,-151 1028.47,-151 1028.47,-187"/>
<text text-anchor="middle" x="968" y="-164.8" font-family="Times,serif" font-size="14.00">HomePageModule</text>
</g>
<!-- CategorySelectableComponent&#45;&gt;HomePageModule -->
<g id="edge1" class="edge">
<title>CategorySelectableComponent&#45;&gt;HomePageModule</title>
<path fill="none" stroke="black" d="M1804,-122.09C1804,-145.13 1804,-182 1804,-182 1804,-182 1038.8,-182 1038.8,-182"/>
<polygon fill="black" stroke="black" points="1038.8,-178.5 1028.8,-182 1038.8,-185.5 1038.8,-178.5"/>
</g>
<!-- CategorySelectableMobileComponent -->
<g id="node2" class="node">
<title>CategorySelectableMobileComponent</title>
<polygon fill="#ffffb3" stroke="black" points="1691.12,-122 1460.88,-122 1460.88,-86 1691.12,-86 1691.12,-122"/>
<text text-anchor="middle" x="1576" y="-99.8" font-family="Times,serif" font-size="14.00">CategorySelectableMobileComponent</text>
</g>
<!-- CategorySelectableMobileComponent&#45;&gt;HomePageModule -->
<g id="edge2" class="edge">
<title>CategorySelectableMobileComponent&#45;&gt;HomePageModule</title>
<path fill="none" stroke="black" d="M1576,-122.28C1576,-143.32 1576,-175 1576,-175 1576,-175 1038.52,-175 1038.52,-175"/>
<polygon fill="black" stroke="black" points="1038.52,-171.5 1028.52,-175 1038.52,-178.5 1038.52,-171.5"/>
</g>
<!-- FilterComponent -->
<g id="node3" class="node">
<title>FilterComponent</title>
<polygon fill="#ffffb3" stroke="black" points="1442.66,-122 1331.34,-122 1331.34,-86 1442.66,-86 1442.66,-122"/>
<text text-anchor="middle" x="1387" y="-99.8" font-family="Times,serif" font-size="14.00">FilterComponent</text>
</g>
<!-- FilterComponent&#45;&gt;HomePageModule -->
<g id="edge3" class="edge">
<title>FilterComponent&#45;&gt;HomePageModule</title>
<path fill="none" stroke="black" d="M1387,-122.11C1387,-141.34 1387,-169 1387,-169 1387,-169 1038.48,-169 1038.48,-169"/>
<polygon fill="black" stroke="black" points="1038.48,-165.5 1028.48,-169 1038.48,-172.5 1038.48,-165.5"/>
</g>
<!-- FilterMobileComponent -->
<g id="node4" class="node">
<title>FilterMobileComponent</title>
<polygon fill="#ffffb3" stroke="black" points="1313.1,-122 1160.9,-122 1160.9,-86 1313.1,-86 1313.1,-122"/>
<text text-anchor="middle" x="1237" y="-99.8" font-family="Times,serif" font-size="14.00">FilterMobileComponent</text>
</g>
<!-- FilterMobileComponent&#45;&gt;HomePageModule -->
<g id="edge4" class="edge">
<title>FilterMobileComponent&#45;&gt;HomePageModule</title>
<path fill="none" stroke="black" d="M1237,-122.02C1237,-139.37 1237,-163 1237,-163 1237,-163 1038.7,-163 1038.7,-163"/>
<polygon fill="black" stroke="black" points="1038.7,-159.5 1028.7,-163 1038.7,-166.5 1038.7,-159.5"/>
</g>
<!-- HomePage -->
<g id="node5" class="node">
<title>HomePage</title>
<polygon fill="#ffffb3" stroke="black" points="1142.92,-122 1065.08,-122 1065.08,-86 1142.92,-86 1142.92,-122"/>
<text text-anchor="middle" x="1104" y="-99.8" font-family="Times,serif" font-size="14.00">HomePage</text>
</g>
<!-- HomePage&#45;&gt;HomePageModule -->
<g id="edge5" class="edge">
<title>HomePage&#45;&gt;HomePageModule</title>
<path fill="none" stroke="black" d="M1104,-122.24C1104,-137.57 1104,-157 1104,-157 1104,-157 1038.84,-157 1038.84,-157"/>
<polygon fill="black" stroke="black" points="1038.84,-153.5 1028.84,-157 1038.84,-160.5 1038.84,-153.5"/>
</g>
<!-- ItemCategoryComponent -->
<g id="node6" class="node">
<title>ItemCategoryComponent</title>
<polygon fill="#ffffb3" stroke="black" points="1047.31,-122 888.69,-122 888.69,-86 1047.31,-86 1047.31,-122"/>
<text text-anchor="middle" x="968" y="-99.8" font-family="Times,serif" font-size="14.00">ItemCategoryComponent</text>
</g>
<!-- ItemCategoryComponent&#45;&gt;HomePageModule -->
<g id="edge6" class="edge">
<title>ItemCategoryComponent&#45;&gt;HomePageModule</title>
<path fill="none" stroke="black" d="M968,-122.11C968,-122.11 968,-140.99 968,-140.99"/>
<polygon fill="black" stroke="black" points="964.5,-140.99 968,-150.99 971.5,-140.99 964.5,-140.99"/>
</g>
<!-- ItemUserComponent -->
<g id="node7" class="node">
<title>ItemUserComponent</title>
<polygon fill="#ffffb3" stroke="black" points="870.92,-122 737.08,-122 737.08,-86 870.92,-86 870.92,-122"/>
<text text-anchor="middle" x="804" y="-99.8" font-family="Times,serif" font-size="14.00">ItemUserComponent</text>
</g>
<!-- ItemUserComponent&#45;&gt;HomePageModule -->
<g id="edge7" class="edge">
<title>ItemUserComponent&#45;&gt;HomePageModule</title>
<path fill="none" stroke="black" d="M804,-122.24C804,-137.57 804,-157 804,-157 804,-157 897.4,-157 897.4,-157"/>
<polygon fill="black" stroke="black" points="897.4,-160.5 907.4,-157 897.4,-153.5 897.4,-160.5"/>
</g>
<!-- UserSelectableComponent -->
<g id="node8" class="node">
<title>UserSelectableComponent</title>
<polygon fill="#ffffb3" stroke="black" points="719.79,-122 554.21,-122 554.21,-86 719.79,-86 719.79,-122"/>
<text text-anchor="middle" x="637" y="-99.8" font-family="Times,serif" font-size="14.00">UserSelectableComponent</text>
</g>
<!-- UserSelectableComponent&#45;&gt;HomePageModule -->
<g id="edge8" class="edge">
<title>UserSelectableComponent&#45;&gt;HomePageModule</title>
<path fill="none" stroke="black" d="M637,-122.02C637,-139.37 637,-163 637,-163 637,-163 897.29,-163 897.29,-163"/>
<polygon fill="black" stroke="black" points="897.29,-166.5 907.29,-163 897.29,-159.5 897.29,-166.5"/>
</g>
<!-- UserSelectableMobileComponent -->
<g id="node9" class="node">
<title>UserSelectableMobileComponent</title>
<polygon fill="#ffffb3" stroke="black" points="535.73,-122 330.27,-122 330.27,-86 535.73,-86 535.73,-122"/>
<text text-anchor="middle" x="433" y="-99.8" font-family="Times,serif" font-size="14.00">UserSelectableMobileComponent</text>
</g>
<!-- UserSelectableMobileComponent&#45;&gt;HomePageModule -->
<g id="edge9" class="edge">
<title>UserSelectableMobileComponent&#45;&gt;HomePageModule</title>
<path fill="none" stroke="black" d="M433,-122.11C433,-141.34 433,-169 433,-169 433,-169 897.41,-169 897.41,-169"/>
<polygon fill="black" stroke="black" points="897.41,-172.5 907.41,-169 897.41,-165.5 897.41,-172.5"/>
</g>
<!-- HomePageRoutingModule -->
<g id="node11" class="node">
<title>HomePageRoutingModule</title>
<polygon fill="#8dd3c7" stroke="black" points="306.09,-122 303.09,-126 282.09,-126 279.09,-122 139.91,-122 139.91,-86 306.09,-86 306.09,-122"/>
<text text-anchor="middle" x="223" y="-99.8" font-family="Times,serif" font-size="14.00">HomePageRoutingModule</text>
</g>
<!-- HomePageRoutingModule&#45;&gt;HomePageModule -->
<g id="edge10" class="edge">
<title>HomePageRoutingModule&#45;&gt;HomePageModule</title>
<path fill="none" stroke="black" d="M223,-122.28C223,-143.32 223,-175 223,-175 223,-175 897.35,-175 897.35,-175"/>
<polygon fill="black" stroke="black" points="897.35,-178.5 907.35,-175 897.35,-171.5 897.35,-178.5"/>
</g>
<!-- SharedModule -->
<g id="node12" class="node">
<title>SharedModule</title>
<polygon fill="#8dd3c7" stroke="black" points="122.42,-122 119.42,-126 98.42,-126 95.42,-122 23.58,-122 23.58,-86 122.42,-86 122.42,-122"/>
<text text-anchor="middle" x="73" y="-99.8" font-family="Times,serif" font-size="14.00">SharedModule</text>
</g>
<!-- SharedModule&#45;&gt;HomePageModule -->
<g id="edge11" class="edge">
<title>SharedModule&#45;&gt;HomePageModule</title>
<path fill="none" stroke="black" d="M73,-122.09C73,-145.13 73,-182 73,-182 73,-182 897.19,-182 897.19,-182"/>
<polygon fill="black" stroke="black" points="897.19,-185.5 907.19,-182 897.19,-178.5 897.19,-185.5"/>
</g>
</g>
</svg>
