<?xml version="1.0" encoding="UTF-8" standalone="no"?>
<!DOCTYPE svg PUBLIC "-//W3C//DTD SVG 1.1//EN"
 "http://www.w3.org/Graphics/SVG/1.1/DTD/svg11.dtd">
<!-- Generated by graphviz version 2.47.0 (20210316.0004)
 -->
<!-- Title: dependencies Pages: 1 -->
<svg width="611pt" height="211pt"
 viewBox="0.00 0.00 611.00 211.00" xmlns="http://www.w3.org/2000/svg" xmlns:xlink="http://www.w3.org/1999/xlink">
<g id="graph0" class="graph" transform="scale(1 1) rotate(0) translate(4 207)">
<title>dependencies</title>
<polygon fill="white" stroke="transparent" points="-4,4 -4,-207 607,-207 607,4 -4,4"/>
<text text-anchor="start" x="280.51" y="-42.4" font-family="Times-12" font-weight="bold" font-size="14.00">Legend</text>
<polygon fill="#ffffb3" stroke="transparent" points="67.5,-10 67.5,-30 87.5,-30 87.5,-10 67.5,-10"/>
<text text-anchor="start" x="91.13" y="-15.4" font-family="Times-12" font-size="14.00"> &#160;Declarations</text>
<polygon fill="#8dd3c7" stroke="transparent" points="180.5,-10 180.5,-30 200.5,-30 200.5,-10 180.5,-10"/>
<text text-anchor="start" x="204.23" y="-15.4" font-family="Times-12" font-size="14.00"> &#160;Module</text>
<polygon fill="#80b1d3" stroke="transparent" points="266.5,-10 266.5,-30 286.5,-30 286.5,-10 266.5,-10"/>
<text text-anchor="start" x="290.28" y="-15.4" font-family="Times-12" font-size="14.00"> &#160;Bootstrap</text>
<polygon fill="#fdb462" stroke="transparent" points="363.5,-10 363.5,-30 383.5,-30 383.5,-10 363.5,-10"/>
<text text-anchor="start" x="387.17" y="-15.4" font-family="Times-12" font-size="14.00"> &#160;Providers</text>
<polygon fill="#fb8072" stroke="transparent" points="459.5,-10 459.5,-30 479.5,-30 479.5,-10 459.5,-10"/>
<text text-anchor="start" x="483.23" y="-15.4" font-family="Times-12" font-size="14.00"> &#160;Exports</text>
<g id="clust1" class="cluster">
<title>cluster_DataPageModule</title>
<polygon fill="none" stroke="black" stroke-dasharray="1,5" points="8,-70 8,-195 595,-195 595,-70 8,-70"/>
</g>
<g id="clust2" class="cluster">
<title>cluster_DataPageModule_declarations</title>
<polygon fill="none" stroke="black" points="314,-78 314,-130 587,-130 587,-78 314,-78"/>
</g>
<g id="clust5" class="cluster">
<title>cluster_DataPageModule_imports</title>
<polygon fill="none" stroke="black" points="16,-78 16,-130 306,-130 306,-78 16,-78"/>
</g>
<!-- DataPage -->
<g id="node1" class="node">
<title>DataPage</title>
<polygon fill="#ffffb3" stroke="black" points="578.64,-122 509.36,-122 509.36,-86 578.64,-86 578.64,-122"/>
<text text-anchor="middle" x="544" y="-99.8" font-family="Times,serif" font-size="14.00">DataPage</text>
</g>
<!-- DataPageModule -->
<g id="node3" class="node">
<title>DataPageModule</title>
<polygon fill="#8dd3c7" stroke="black" points="275.69,-187 272.69,-191 251.69,-191 248.69,-187 162.31,-187 162.31,-151 275.69,-151 275.69,-187"/>
<text text-anchor="middle" x="219" y="-164.8" font-family="Times,serif" font-size="14.00">DataPageModule</text>
</g>
<!-- DataPage&#45;&gt;DataPageModule -->
<g id="edge1" class="edge">
<title>DataPage&#45;&gt;DataPageModule</title>
<path fill="none" stroke="black" d="M544,-122.28C544,-143.32 544,-175 544,-175 544,-175 285.61,-175 285.61,-175"/>
<polygon fill="black" stroke="black" points="285.61,-171.5 275.61,-175 285.61,-178.5 285.61,-171.5"/>
</g>
<!-- ModalCategoryComponent -->
<g id="node2" class="node">
<title>ModalCategoryComponent</title>
<polygon fill="#ffffb3" stroke="black" points="491.7,-122 322.3,-122 322.3,-86 491.7,-86 491.7,-122"/>
<text text-anchor="middle" x="407" y="-99.8" font-family="Times,serif" font-size="14.00">ModalCategoryComponent</text>
</g>
<!-- ModalCategoryComponent&#45;&gt;DataPageModule -->
<g id="edge2" class="edge">
<title>ModalCategoryComponent&#45;&gt;DataPageModule</title>
<path fill="none" stroke="black" d="M407,-122.02C407,-139.37 407,-163 407,-163 407,-163 285.66,-163 285.66,-163"/>
<polygon fill="black" stroke="black" points="285.66,-159.5 275.66,-163 285.66,-166.5 285.66,-159.5"/>
</g>
<!-- DataPageRoutingModule -->
<g id="node4" class="node">
<title>DataPageRoutingModule</title>
<polygon fill="#8dd3c7" stroke="black" points="298.31,-122 295.31,-126 274.31,-126 271.31,-122 139.69,-122 139.69,-86 298.31,-86 298.31,-122"/>
<text text-anchor="middle" x="219" y="-99.8" font-family="Times,serif" font-size="14.00">DataPageRoutingModule</text>
</g>
<!-- DataPageRoutingModule&#45;&gt;DataPageModule -->
<g id="edge3" class="edge">
<title>DataPageRoutingModule&#45;&gt;DataPageModule</title>
<path fill="none" stroke="black" d="M219,-122.11C219,-122.11 219,-140.99 219,-140.99"/>
<polygon fill="black" stroke="black" points="215.5,-140.99 219,-150.99 222.5,-140.99 215.5,-140.99"/>
</g>
<!-- SharedModule -->
<g id="node5" class="node">
<title>SharedModule</title>
<polygon fill="#8dd3c7" stroke="black" points="122.42,-122 119.42,-126 98.42,-126 95.42,-122 23.58,-122 23.58,-86 122.42,-86 122.42,-122"/>
<text text-anchor="middle" x="73" y="-99.8" font-family="Times,serif" font-size="14.00">SharedModule</text>
</g>
<!-- SharedModule&#45;&gt;DataPageModule -->
<g id="edge4" class="edge">
<title>SharedModule&#45;&gt;DataPageModule</title>
<path fill="none" stroke="black" d="M56.6,-122.28C56.6,-143.32 56.6,-175 56.6,-175 56.6,-175 152.2,-175 152.2,-175"/>
<polygon fill="black" stroke="black" points="152.2,-178.5 162.2,-175 152.2,-171.5 152.2,-178.5"/>
</g>
<!-- SharedModule&#45;&gt;DataPageModule -->
<g id="edge5" class="edge">
<title>SharedModule&#45;&gt;DataPageModule</title>
<path fill="none" stroke="black" d="M89.4,-122.02C89.4,-139.37 89.4,-163 89.4,-163 89.4,-163 152.16,-163 152.16,-163"/>
<polygon fill="black" stroke="black" points="152.16,-166.5 162.16,-163 152.16,-159.5 152.16,-166.5"/>
</g>
</g>
</svg>
