<?xml version="1.0" encoding="UTF-8" standalone="no"?>
<!DOCTYPE svg PUBLIC "-//W3C//DTD SVG 1.1//EN"
 "http://www.w3.org/Graphics/SVG/1.1/DTD/svg11.dtd">
<!-- Generated by graphviz version 2.47.0 (20210316.0004)
 -->
<!-- Title: dependencies Pages: 1 -->
<svg width="611pt" height="211pt"
 viewBox="0.00 0.00 611.00 211.00" xmlns="http://www.w3.org/2000/svg" xmlns:xlink="http://www.w3.org/1999/xlink">
<g id="graph0" class="graph" transform="scale(1 1) rotate(0) translate(4 207)">
<title>dependencies</title>
<polygon fill="white" stroke="transparent" points="-4,4 -4,-207 607,-207 607,4 -4,4"/>
<text text-anchor="start" x="280.51" y="-42.4" font-family="Times-12" font-weight="bold" font-size="14.00">Legend</text>
<polygon fill="#ffffb3" stroke="transparent" points="67.5,-10 67.5,-30 87.5,-30 87.5,-10 67.5,-10"/>
<text text-anchor="start" x="91.13" y="-15.4" font-family="Times-12" font-size="14.00"> &#160;Declarations</text>
<polygon fill="#8dd3c7" stroke="transparent" points="180.5,-10 180.5,-30 200.5,-30 200.5,-10 180.5,-10"/>
<text text-anchor="start" x="204.23" y="-15.4" font-family="Times-12" font-size="14.00"> &#160;Module</text>
<polygon fill="#80b1d3" stroke="transparent" points="266.5,-10 266.5,-30 286.5,-30 286.5,-10 266.5,-10"/>
<text text-anchor="start" x="290.28" y="-15.4" font-family="Times-12" font-size="14.00"> &#160;Bootstrap</text>
<polygon fill="#fdb462" stroke="transparent" points="363.5,-10 363.5,-30 383.5,-30 383.5,-10 363.5,-10"/>
<text text-anchor="start" x="387.17" y="-15.4" font-family="Times-12" font-size="14.00"> &#160;Providers</text>
<polygon fill="#fb8072" stroke="transparent" points="459.5,-10 459.5,-30 479.5,-30 479.5,-10 459.5,-10"/>
<text text-anchor="start" x="483.23" y="-15.4" font-family="Times-12" font-size="14.00"> &#160;Exports</text>
<g id="clust1" class="cluster">
<title>cluster_DataPageModule</title>
<polygon fill="none" stroke="black" stroke-dasharray="1,5" points="8,-70 8,-195 595,-195 595,-70 8,-70"/>
</g>
<g id="clust5" class="cluster">
<title>cluster_DataPageModule_imports</title>
<polygon fill="none" stroke="black" points="297,-78 297,-130 587,-130 587,-78 297,-78"/>
</g>
<g id="clust2" class="cluster">
<title>cluster_DataPageModule_declarations</title>
<polygon fill="none" stroke="black" points="16,-78 16,-130 289,-130 289,-78 16,-78"/>
</g>
<!-- DataPage -->
<g id="node1" class="node">
<title>DataPage</title>
<polygon fill="#ffffb3" stroke="black" points="280.64,-122 211.36,-122 211.36,-86 280.64,-86 280.64,-122"/>
<text text-anchor="middle" x="246" y="-99.8" font-family="Times,serif" font-size="14.00">DataPage</text>
</g>
<!-- DataPageModule -->
<g id="node3" class="node">
<title>DataPageModule</title>
<polygon fill="#8dd3c7" stroke="black" points="410.69,-187 407.69,-191 386.69,-191 383.69,-187 297.31,-187 297.31,-151 410.69,-151 410.69,-187"/>
<text text-anchor="middle" x="354" y="-164.8" font-family="Times,serif" font-size="14.00">DataPageModule</text>
</g>
<!-- DataPage&#45;&gt;DataPageModule -->
<g id="edge1" class="edge">
<title>DataPage&#45;&gt;DataPageModule</title>
<path fill="none" stroke="black" d="M280.89,-104C291.83,-104 301.1,-104 301.1,-104 301.1,-104 301.1,-140.89 301.1,-140.89"/>
<polygon fill="black" stroke="black" points="297.6,-140.89 301.1,-150.89 304.6,-140.89 297.6,-140.89"/>
</g>
<!-- ModalCategoryComponent -->
<g id="node2" class="node">
<title>ModalCategoryComponent</title>
<polygon fill="#ffffb3" stroke="black" points="193.7,-122 24.3,-122 24.3,-86 193.7,-86 193.7,-122"/>
<text text-anchor="middle" x="109" y="-99.8" font-family="Times,serif" font-size="14.00">ModalCategoryComponent</text>
</g>
<!-- ModalCategoryComponent&#45;&gt;DataPageModule -->
<g id="edge2" class="edge">
<title>ModalCategoryComponent&#45;&gt;DataPageModule</title>
<path fill="none" stroke="black" d="M109,-122.11C109,-141.34 109,-169 109,-169 109,-169 287.18,-169 287.18,-169"/>
<polygon fill="black" stroke="black" points="287.18,-172.5 297.18,-169 287.18,-165.5 287.18,-172.5"/>
</g>
<!-- DataPageRoutingModule -->
<g id="node4" class="node">
<title>DataPageRoutingModule</title>
<polygon fill="#8dd3c7" stroke="black" points="579.31,-122 576.31,-126 555.31,-126 552.31,-122 420.69,-122 420.69,-86 579.31,-86 579.31,-122"/>
<text text-anchor="middle" x="500" y="-99.8" font-family="Times,serif" font-size="14.00">DataPageRoutingModule</text>
</g>
<!-- DataPageRoutingModule&#45;&gt;DataPageModule -->
<g id="edge3" class="edge">
<title>DataPageRoutingModule&#45;&gt;DataPageModule</title>
<path fill="none" stroke="black" d="M420.64,-104C412.36,-104 406.9,-104 406.9,-104 406.9,-104 406.9,-140.89 406.9,-140.89"/>
<polygon fill="black" stroke="black" points="403.4,-140.89 406.9,-150.89 410.4,-140.89 403.4,-140.89"/>
</g>
<!-- SharedModule -->
<g id="node5" class="node">
<title>SharedModule</title>
<polygon fill="#8dd3c7" stroke="black" points="403.42,-122 400.42,-126 379.42,-126 376.42,-122 304.58,-122 304.58,-86 403.42,-86 403.42,-122"/>
<text text-anchor="middle" x="354" y="-99.8" font-family="Times,serif" font-size="14.00">SharedModule</text>
</g>
<!-- SharedModule&#45;&gt;DataPageModule -->
<g id="edge4" class="edge">
<title>SharedModule&#45;&gt;DataPageModule</title>
<path fill="none" stroke="black" d="M337.6,-122.11C337.6,-122.11 337.6,-140.99 337.6,-140.99"/>
<polygon fill="black" stroke="black" points="334.1,-140.99 337.6,-150.99 341.1,-140.99 334.1,-140.99"/>
</g>
<!-- SharedModule&#45;&gt;DataPageModule -->
<g id="edge5" class="edge">
<title>SharedModule&#45;&gt;DataPageModule</title>
<path fill="none" stroke="black" d="M370.4,-122.11C370.4,-122.11 370.4,-140.99 370.4,-140.99"/>
<polygon fill="black" stroke="black" points="366.9,-140.99 370.4,-150.99 373.9,-140.99 366.9,-140.99"/>
</g>
</g>
</svg>
