<?xml version="1.0" encoding="UTF-8" standalone="no"?>
<!DOCTYPE svg PUBLIC "-//W3C//DTD SVG 1.1//EN"
 "http://www.w3.org/Graphics/SVG/1.1/DTD/svg11.dtd">
<!-- Generated by graphviz version 2.47.0 (20210316.0004)
 -->
<!-- Title: dependencies Pages: 1 -->
<svg width="504pt" height="211pt"
 viewBox="0.00 0.00 504.00 211.00" xmlns="http://www.w3.org/2000/svg" xmlns:xlink="http://www.w3.org/1999/xlink">
<g id="graph0" class="graph" transform="scale(1 1) rotate(0) translate(4 207)">
<title>dependencies</title>
<polygon fill="white" stroke="transparent" points="-4,4 -4,-207 500,-207 500,4 -4,4"/>
<text text-anchor="start" x="227.01" y="-42.4" font-family="Times-12" font-weight="bold" font-size="14.00">Legend</text>
<polygon fill="#ffffb3" stroke="transparent" points="14,-10 14,-30 34,-30 34,-10 14,-10"/>
<text text-anchor="start" x="37.63" y="-15.4" font-family="Times-12" font-size="14.00"> &#160;Declarations</text>
<polygon fill="#8dd3c7" stroke="transparent" points="127,-10 127,-30 147,-30 147,-10 127,-10"/>
<text text-anchor="start" x="150.73" y="-15.4" font-family="Times-12" font-size="14.00"> &#160;Module</text>
<polygon fill="#80b1d3" stroke="transparent" points="213,-10 213,-30 233,-30 233,-10 213,-10"/>
<text text-anchor="start" x="236.78" y="-15.4" font-family="Times-12" font-size="14.00"> &#160;Bootstrap</text>
<polygon fill="#fdb462" stroke="transparent" points="310,-10 310,-30 330,-30 330,-10 310,-10"/>
<text text-anchor="start" x="333.67" y="-15.4" font-family="Times-12" font-size="14.00"> &#160;Providers</text>
<polygon fill="#fb8072" stroke="transparent" points="406,-10 406,-30 426,-30 426,-10 406,-10"/>
<text text-anchor="start" x="429.73" y="-15.4" font-family="Times-12" font-size="14.00"> &#160;Exports</text>
<g id="clust1" class="cluster">
<title>cluster_IncidentDataPageModule</title>
<polygon fill="none" stroke="black" stroke-dasharray="1,5" points="60,-70 60,-195 436,-195 436,-70 60,-70"/>
</g>
<g id="clust2" class="cluster">
<title>cluster_IncidentDataPageModule_declarations</title>
<polygon fill="none" stroke="black" points="296,-78 296,-130 428,-130 428,-78 296,-78"/>
</g>
<g id="clust4" class="cluster">
<title>cluster_IncidentDataPageModule_imports</title>
<polygon fill="none" stroke="black" points="68,-78 68,-130 288,-130 288,-78 68,-78"/>
</g>
<!-- IncidentDataPage -->
<g id="node1" class="node">
<title>IncidentDataPage</title>
<polygon fill="#ffffb3" stroke="black" points="419.51,-122 304.49,-122 304.49,-86 419.51,-86 419.51,-122"/>
<text text-anchor="middle" x="362" y="-99.8" font-family="Times,serif" font-size="14.00">IncidentDataPage</text>
</g>
<!-- IncidentDataPageModule -->
<g id="node2" class="node">
<title>IncidentDataPageModule</title>
<polygon fill="#8dd3c7" stroke="black" points="342.56,-187 339.56,-191 318.56,-191 315.56,-187 183.44,-187 183.44,-151 342.56,-151 342.56,-187"/>
<text text-anchor="middle" x="263" y="-164.8" font-family="Times,serif" font-size="14.00">IncidentDataPageModule</text>
</g>
<!-- IncidentDataPage&#45;&gt;IncidentDataPageModule -->
<g id="edge1" class="edge">
<title>IncidentDataPage&#45;&gt;IncidentDataPageModule</title>
<path fill="none" stroke="black" d="M323.39,-122.11C323.39,-122.11 323.39,-140.99 323.39,-140.99"/>
<polygon fill="black" stroke="black" points="319.89,-140.99 323.39,-150.99 326.89,-140.99 319.89,-140.99"/>
</g>
<!-- IncidentDataPageRoutingModule -->
<g id="node3" class="node">
<title>IncidentDataPageRoutingModule</title>
<polygon fill="#8dd3c7" stroke="black" points="280.18,-122 277.18,-126 256.18,-126 253.18,-122 75.82,-122 75.82,-86 280.18,-86 280.18,-122"/>
<text text-anchor="middle" x="178" y="-99.8" font-family="Times,serif" font-size="14.00">IncidentDataPageRoutingModule</text>
</g>
<!-- IncidentDataPageRoutingModule&#45;&gt;IncidentDataPageModule -->
<g id="edge2" class="edge">
<title>IncidentDataPageRoutingModule&#45;&gt;IncidentDataPageModule</title>
<path fill="none" stroke="black" d="M231.78,-122.11C231.78,-122.11 231.78,-140.99 231.78,-140.99"/>
<polygon fill="black" stroke="black" points="228.28,-140.99 231.78,-150.99 235.28,-140.99 228.28,-140.99"/>
</g>
</g>
</svg>
