<?xml version="1.0" encoding="UTF-8" standalone="no"?>
<!DOCTYPE svg PUBLIC "-//W3C//DTD SVG 1.1//EN"
 "http://www.w3.org/Graphics/SVG/1.1/DTD/svg11.dtd">
<!-- Generated by graphviz version 2.47.0 (20210316.0004)
 -->
<!-- Title: dependencies Pages: 1 -->
<svg width="790pt" height="211pt"
 viewBox="0.00 0.00 790.00 211.00" xmlns="http://www.w3.org/2000/svg" xmlns:xlink="http://www.w3.org/1999/xlink">
<g id="graph0" class="graph" transform="scale(1 1) rotate(0) translate(4 207)">
<title>dependencies</title>
<polygon fill="white" stroke="transparent" points="-4,4 -4,-207 786,-207 786,4 -4,4"/>
<text text-anchor="start" x="370.01" y="-42.4" font-family="Times-12" font-weight="bold" font-size="14.00">Legend</text>
<polygon fill="#ffffb3" stroke="transparent" points="157,-10 157,-30 177,-30 177,-10 157,-10"/>
<text text-anchor="start" x="180.63" y="-15.4" font-family="Times-12" font-size="14.00"> &#160;Declarations</text>
<polygon fill="#8dd3c7" stroke="transparent" points="270,-10 270,-30 290,-30 290,-10 270,-10"/>
<text text-anchor="start" x="293.73" y="-15.4" font-family="Times-12" font-size="14.00"> &#160;Module</text>
<polygon fill="#80b1d3" stroke="transparent" points="356,-10 356,-30 376,-30 376,-10 356,-10"/>
<text text-anchor="start" x="379.78" y="-15.4" font-family="Times-12" font-size="14.00"> &#160;Bootstrap</text>
<polygon fill="#fdb462" stroke="transparent" points="453,-10 453,-30 473,-30 473,-10 453,-10"/>
<text text-anchor="start" x="476.67" y="-15.4" font-family="Times-12" font-size="14.00"> &#160;Providers</text>
<polygon fill="#fb8072" stroke="transparent" points="549,-10 549,-30 569,-30 569,-10 549,-10"/>
<text text-anchor="start" x="572.73" y="-15.4" font-family="Times-12" font-size="14.00"> &#160;Exports</text>
<g id="clust1" class="cluster">
<title>cluster_AccessPageModule</title>
<polygon fill="none" stroke="black" stroke-dasharray="1,5" points="8,-70 8,-195 774,-195 774,-70 8,-70"/>
</g>
<g id="clust2" class="cluster">
<title>cluster_AccessPageModule_declarations</title>
<polygon fill="none" stroke="black" points="328,-78 328,-130 766,-130 766,-78 328,-78"/>
</g>
<g id="clust6" class="cluster">
<title>cluster_AccessPageModule_imports</title>
<polygon fill="none" stroke="black" points="16,-78 16,-130 320,-130 320,-78 16,-78"/>
</g>
<!-- AccessPage -->
<g id="node1" class="node">
<title>AccessPage</title>
<polygon fill="#ffffb3" stroke="black" points="758.35,-122 675.65,-122 675.65,-86 758.35,-86 758.35,-122"/>
<text text-anchor="middle" x="717" y="-99.8" font-family="Times,serif" font-size="14.00">AccessPage</text>
</g>
<!-- AccessPageModule -->
<g id="node4" class="node">
<title>AccessPageModule</title>
<polygon fill="#8dd3c7" stroke="black" points="478.4,-187 475.4,-191 454.4,-191 451.4,-187 351.6,-187 351.6,-151 478.4,-151 478.4,-187"/>
<text text-anchor="middle" x="415" y="-164.8" font-family="Times,serif" font-size="14.00">AccessPageModule</text>
</g>
<!-- AccessPage&#45;&gt;AccessPageModule -->
<g id="edge1" class="edge">
<title>AccessPage&#45;&gt;AccessPageModule</title>
<path fill="none" stroke="black" d="M717,-122.28C717,-143.32 717,-175 717,-175 717,-175 488.31,-175 488.31,-175"/>
<polygon fill="black" stroke="black" points="488.31,-171.5 478.31,-175 488.31,-178.5 488.31,-171.5"/>
</g>
<!-- LoginFormComponent -->
<g id="node2" class="node">
<title>LoginFormComponent</title>
<polygon fill="#ffffb3" stroke="black" points="657.61,-122 512.39,-122 512.39,-86 657.61,-86 657.61,-122"/>
<text text-anchor="middle" x="585" y="-99.8" font-family="Times,serif" font-size="14.00">LoginFormComponent</text>
</g>
<!-- LoginFormComponent&#45;&gt;AccessPageModule -->
<g id="edge2" class="edge">
<title>LoginFormComponent&#45;&gt;AccessPageModule</title>
<path fill="none" stroke="black" d="M585,-122.02C585,-139.37 585,-163 585,-163 585,-163 488.3,-163 488.3,-163"/>
<polygon fill="black" stroke="black" points="488.3,-159.5 478.3,-163 488.3,-166.5 488.3,-159.5"/>
</g>
<!-- RegisterFormComponent -->
<g id="node3" class="node">
<title>RegisterFormComponent</title>
<polygon fill="#ffffb3" stroke="black" points="494.32,-122 335.68,-122 335.68,-86 494.32,-86 494.32,-122"/>
<text text-anchor="middle" x="415" y="-99.8" font-family="Times,serif" font-size="14.00">RegisterFormComponent</text>
</g>
<!-- RegisterFormComponent&#45;&gt;AccessPageModule -->
<g id="edge3" class="edge">
<title>RegisterFormComponent&#45;&gt;AccessPageModule</title>
<path fill="none" stroke="black" d="M415,-122.11C415,-122.11 415,-140.99 415,-140.99"/>
<polygon fill="black" stroke="black" points="411.5,-140.99 415,-150.99 418.5,-140.99 411.5,-140.99"/>
</g>
<!-- AccessPageRoutingModule -->
<g id="node5" class="node">
<title>AccessPageRoutingModule</title>
<polygon fill="#8dd3c7" stroke="black" points="311.52,-122 308.52,-126 287.52,-126 284.52,-122 140.48,-122 140.48,-86 311.52,-86 311.52,-122"/>
<text text-anchor="middle" x="226" y="-99.8" font-family="Times,serif" font-size="14.00">AccessPageRoutingModule</text>
</g>
<!-- AccessPageRoutingModule&#45;&gt;AccessPageModule -->
<g id="edge4" class="edge">
<title>AccessPageRoutingModule&#45;&gt;AccessPageModule</title>
<path fill="none" stroke="black" d="M226,-122.02C226,-139.37 226,-163 226,-163 226,-163 341.54,-163 341.54,-163"/>
<polygon fill="black" stroke="black" points="341.54,-166.5 351.54,-163 341.54,-159.5 341.54,-166.5"/>
</g>
<!-- SharedModule -->
<g id="node6" class="node">
<title>SharedModule</title>
<polygon fill="#8dd3c7" stroke="black" points="122.42,-122 119.42,-126 98.42,-126 95.42,-122 23.58,-122 23.58,-86 122.42,-86 122.42,-122"/>
<text text-anchor="middle" x="73" y="-99.8" font-family="Times,serif" font-size="14.00">SharedModule</text>
</g>
<!-- SharedModule&#45;&gt;AccessPageModule -->
<g id="edge5" class="edge">
<title>SharedModule&#45;&gt;AccessPageModule</title>
<path fill="none" stroke="black" d="M73,-122.28C73,-143.32 73,-175 73,-175 73,-175 341.47,-175 341.47,-175"/>
<polygon fill="black" stroke="black" points="341.47,-178.5 351.47,-175 341.47,-171.5 341.47,-178.5"/>
</g>
</g>
</svg>
