<?xml version="1.0" encoding="UTF-8" standalone="no"?>
<!DOCTYPE svg PUBLIC "-//W3C//DTD SVG 1.1//EN"
 "http://www.w3.org/Graphics/SVG/1.1/DTD/svg11.dtd">
<!-- Generated by graphviz version 2.47.0 (20210316.0004)
 -->
<!-- Title: dependencies Pages: 1 -->
<svg width="790pt" height="211pt"
 viewBox="0.00 0.00 790.00 211.00" xmlns="http://www.w3.org/2000/svg" xmlns:xlink="http://www.w3.org/1999/xlink">
<g id="graph0" class="graph" transform="scale(1 1) rotate(0) translate(4 207)">
<title>dependencies</title>
<polygon fill="white" stroke="transparent" points="-4,4 -4,-207 786,-207 786,4 -4,4"/>
<text text-anchor="start" x="370.01" y="-42.4" font-family="Times-12" font-weight="bold" font-size="14.00">Legend</text>
<polygon fill="#ffffb3" stroke="transparent" points="157,-10 157,-30 177,-30 177,-10 157,-10"/>
<text text-anchor="start" x="180.63" y="-15.4" font-family="Times-12" font-size="14.00"> &#160;Declarations</text>
<polygon fill="#8dd3c7" stroke="transparent" points="270,-10 270,-30 290,-30 290,-10 270,-10"/>
<text text-anchor="start" x="293.73" y="-15.4" font-family="Times-12" font-size="14.00"> &#160;Module</text>
<polygon fill="#80b1d3" stroke="transparent" points="356,-10 356,-30 376,-30 376,-10 356,-10"/>
<text text-anchor="start" x="379.78" y="-15.4" font-family="Times-12" font-size="14.00"> &#160;Bootstrap</text>
<polygon fill="#fdb462" stroke="transparent" points="453,-10 453,-30 473,-30 473,-10 453,-10"/>
<text text-anchor="start" x="476.67" y="-15.4" font-family="Times-12" font-size="14.00"> &#160;Providers</text>
<polygon fill="#fb8072" stroke="transparent" points="549,-10 549,-30 569,-30 569,-10 549,-10"/>
<text text-anchor="start" x="572.73" y="-15.4" font-family="Times-12" font-size="14.00"> &#160;Exports</text>
<g id="clust1" class="cluster">
<title>cluster_AccessPageModule</title>
<polygon fill="none" stroke="black" stroke-dasharray="1,5" points="8,-70 8,-195 774,-195 774,-70 8,-70"/>
</g>
<g id="clust6" class="cluster">
<title>cluster_AccessPageModule_imports</title>
<polygon fill="none" stroke="black" points="462,-78 462,-130 766,-130 766,-78 462,-78"/>
</g>
<g id="clust2" class="cluster">
<title>cluster_AccessPageModule_declarations</title>
<polygon fill="none" stroke="black" points="16,-78 16,-130 454,-130 454,-78 16,-78"/>
</g>
<!-- AccessPage -->
<g id="node1" class="node">
<title>AccessPage</title>
<polygon fill="#ffffb3" stroke="black" points="446.35,-122 363.65,-122 363.65,-86 446.35,-86 446.35,-122"/>
<text text-anchor="middle" x="405" y="-99.8" font-family="Times,serif" font-size="14.00">AccessPage</text>
</g>
<!-- AccessPageModule -->
<g id="node4" class="node">
<title>AccessPageModule</title>
<polygon fill="#8dd3c7" stroke="black" points="468.4,-187 465.4,-191 444.4,-191 441.4,-187 341.6,-187 341.6,-151 468.4,-151 468.4,-187"/>
<text text-anchor="middle" x="405" y="-164.8" font-family="Times,serif" font-size="14.00">AccessPageModule</text>
</g>
<!-- AccessPage&#45;&gt;AccessPageModule -->
<g id="edge1" class="edge">
<title>AccessPage&#45;&gt;AccessPageModule</title>
<path fill="none" stroke="black" d="M405,-122.11C405,-122.11 405,-140.99 405,-140.99"/>
<polygon fill="black" stroke="black" points="401.5,-140.99 405,-150.99 408.5,-140.99 401.5,-140.99"/>
</g>
<!-- LoginFormComponent -->
<g id="node2" class="node">
<title>LoginFormComponent</title>
<polygon fill="#ffffb3" stroke="black" points="345.61,-122 200.39,-122 200.39,-86 345.61,-86 345.61,-122"/>
<text text-anchor="middle" x="273" y="-99.8" font-family="Times,serif" font-size="14.00">LoginFormComponent</text>
</g>
<!-- LoginFormComponent&#45;&gt;AccessPageModule -->
<g id="edge2" class="edge">
<title>LoginFormComponent&#45;&gt;AccessPageModule</title>
<path fill="none" stroke="black" d="M345.84,-104C351.2,-104 354.56,-104 354.56,-104 354.56,-104 354.56,-140.89 354.56,-140.89"/>
<polygon fill="black" stroke="black" points="351.06,-140.89 354.56,-150.89 358.06,-140.89 351.06,-140.89"/>
</g>
<!-- RegisterFormComponent -->
<g id="node3" class="node">
<title>RegisterFormComponent</title>
<polygon fill="#ffffb3" stroke="black" points="182.32,-122 23.68,-122 23.68,-86 182.32,-86 182.32,-122"/>
<text text-anchor="middle" x="103" y="-99.8" font-family="Times,serif" font-size="14.00">RegisterFormComponent</text>
</g>
<!-- RegisterFormComponent&#45;&gt;AccessPageModule -->
<g id="edge3" class="edge">
<title>RegisterFormComponent&#45;&gt;AccessPageModule</title>
<path fill="none" stroke="black" d="M103,-122.11C103,-141.34 103,-169 103,-169 103,-169 331.69,-169 331.69,-169"/>
<polygon fill="black" stroke="black" points="331.69,-172.5 341.69,-169 331.69,-165.5 331.69,-172.5"/>
</g>
<!-- AccessPageRoutingModule -->
<g id="node5" class="node">
<title>AccessPageRoutingModule</title>
<polygon fill="#8dd3c7" stroke="black" points="757.52,-122 754.52,-126 733.52,-126 730.52,-122 586.48,-122 586.48,-86 757.52,-86 757.52,-122"/>
<text text-anchor="middle" x="672" y="-99.8" font-family="Times,serif" font-size="14.00">AccessPageRoutingModule</text>
</g>
<!-- AccessPageRoutingModule&#45;&gt;AccessPageModule -->
<g id="edge4" class="edge">
<title>AccessPageRoutingModule&#45;&gt;AccessPageModule</title>
<path fill="none" stroke="black" d="M672,-122.11C672,-141.34 672,-169 672,-169 672,-169 478.28,-169 478.28,-169"/>
<polygon fill="black" stroke="black" points="478.28,-165.5 468.28,-169 478.28,-172.5 478.28,-165.5"/>
</g>
<!-- SharedModule -->
<g id="node6" class="node">
<title>SharedModule</title>
<polygon fill="#8dd3c7" stroke="black" points="568.42,-122 565.42,-126 544.42,-126 541.42,-122 469.58,-122 469.58,-86 568.42,-86 568.42,-122"/>
<text text-anchor="middle" x="519" y="-99.8" font-family="Times,serif" font-size="14.00">SharedModule</text>
</g>
<!-- SharedModule&#45;&gt;AccessPageModule -->
<g id="edge5" class="edge">
<title>SharedModule&#45;&gt;AccessPageModule</title>
<path fill="none" stroke="black" d="M469.5,-104C462.33,-104 457.31,-104 457.31,-104 457.31,-104 457.31,-140.89 457.31,-140.89"/>
<polygon fill="black" stroke="black" points="453.81,-140.89 457.31,-150.89 460.81,-140.89 453.81,-140.89"/>
</g>
</g>
</svg>
