<?xml version="1.0" encoding="UTF-8" standalone="no"?>
<!DOCTYPE svg PUBLIC "-//W3C//DTD SVG 1.1//EN"
 "http://www.w3.org/Graphics/SVG/1.1/DTD/svg11.dtd">
<!-- Generated by graphviz version 2.47.0 (20210316.0004)
 -->
<!-- Title: dependencies Pages: 1 -->
<svg width="1499pt" height="284pt"
 viewBox="0.00 0.00 1499.00 284.00" xmlns="http://www.w3.org/2000/svg" xmlns:xlink="http://www.w3.org/1999/xlink">
<g id="graph0" class="graph" transform="scale(1 1) rotate(0) translate(4 280)">
<title>dependencies</title>
<polygon fill="white" stroke="transparent" points="-4,4 -4,-280 1495,-280 1495,4 -4,4"/>
<text text-anchor="start" x="724.51" y="-42.4" font-family="Times-12" font-weight="bold" font-size="14.00">Legend</text>
<polygon fill="#ffffb3" stroke="transparent" points="511.5,-10 511.5,-30 531.5,-30 531.5,-10 511.5,-10"/>
<text text-anchor="start" x="535.13" y="-15.4" font-family="Times-12" font-size="14.00"> &#160;Declarations</text>
<polygon fill="#8dd3c7" stroke="transparent" points="624.5,-10 624.5,-30 644.5,-30 644.5,-10 624.5,-10"/>
<text text-anchor="start" x="648.23" y="-15.4" font-family="Times-12" font-size="14.00"> &#160;Module</text>
<polygon fill="#80b1d3" stroke="transparent" points="710.5,-10 710.5,-30 730.5,-30 730.5,-10 710.5,-10"/>
<text text-anchor="start" x="734.28" y="-15.4" font-family="Times-12" font-size="14.00"> &#160;Bootstrap</text>
<polygon fill="#fdb462" stroke="transparent" points="807.5,-10 807.5,-30 827.5,-30 827.5,-10 807.5,-10"/>
<text text-anchor="start" x="831.17" y="-15.4" font-family="Times-12" font-size="14.00"> &#160;Providers</text>
<polygon fill="#fb8072" stroke="transparent" points="903.5,-10 903.5,-30 923.5,-30 923.5,-10 903.5,-10"/>
<text text-anchor="start" x="927.23" y="-15.4" font-family="Times-12" font-size="14.00"> &#160;Exports</text>
<g id="clust1" class="cluster">
<title>cluster_SharedModule</title>
<polygon fill="none" stroke="black" stroke-dasharray="1,5" points="8,-70 8,-268 1483,-268 1483,-70 8,-70"/>
</g>
<g id="clust11" class="cluster">
<title>cluster_SharedModule_exports</title>
<polygon fill="none" stroke="black" points="126,-208 126,-260 1475,-260 1475,-208 126,-208"/>
</g>
<g id="clust10" class="cluster">
<title>cluster_SharedModule_imports</title>
<polygon fill="none" stroke="black" points="1349,-78 1349,-130 1475,-130 1475,-78 1349,-78"/>
</g>
<g id="clust2" class="cluster">
<title>cluster_SharedModule_declarations</title>
<polygon fill="none" stroke="black" points="16,-78 16,-130 1341,-130 1341,-78 16,-78"/>
</g>
<!-- CategoriesInfoComponent -->
<g id="node1" class="node">
<title>CategoriesInfoComponent</title>
<polygon fill="#ffffb3" stroke="black" points="1333.02,-122 1168.98,-122 1168.98,-86 1333.02,-86 1333.02,-122"/>
<text text-anchor="middle" x="1251" y="-99.8" font-family="Times,serif" font-size="14.00">CategoriesInfoComponent</text>
</g>
<!-- SharedModule -->
<g id="node8" class="node">
<title>SharedModule</title>
<polygon fill="#8dd3c7" stroke="black" points="869.42,-187 866.42,-191 845.42,-191 842.42,-187 770.58,-187 770.58,-151 869.42,-151 869.42,-187"/>
<text text-anchor="middle" x="820" y="-164.8" font-family="Times,serif" font-size="14.00">SharedModule</text>
</g>
<!-- CategoriesInfoComponent&#45;&gt;SharedModule -->
<g id="edge1" class="edge">
<title>CategoriesInfoComponent&#45;&gt;SharedModule</title>
<path fill="none" stroke="black" d="M1224.96,-122.03C1224.96,-139.06 1224.96,-162 1224.96,-162 1224.96,-162 879.25,-162 879.25,-162"/>
<polygon fill="black" stroke="black" points="879.25,-158.5 869.25,-162 879.25,-165.5 879.25,-158.5"/>
</g>
<!-- ConfirmDialogComponent -->
<g id="node2" class="node">
<title>ConfirmDialogComponent</title>
<polygon fill="#ffffb3" stroke="black" points="1150.37,-122 983.63,-122 983.63,-86 1150.37,-86 1150.37,-122"/>
<text text-anchor="middle" x="1067" y="-99.8" font-family="Times,serif" font-size="14.00">ConfirmDialogComponent</text>
</g>
<!-- ConfirmDialogComponent&#45;&gt;SharedModule -->
<g id="edge2" class="edge">
<title>ConfirmDialogComponent&#45;&gt;SharedModule</title>
<path fill="none" stroke="black" d="M1038.14,-122.24C1038.14,-137.57 1038.14,-157 1038.14,-157 1038.14,-157 879.23,-157 879.23,-157"/>
<polygon fill="black" stroke="black" points="879.23,-153.5 869.23,-157 879.23,-160.5 879.23,-153.5"/>
</g>
<!-- IncidentsCircleGraphicComponent -->
<g id="node3" class="node">
<title>IncidentsCircleGraphicComponent</title>
<polygon fill="#ffffb3" stroke="black" points="965.94,-122 754.06,-122 754.06,-86 965.94,-86 965.94,-122"/>
<text text-anchor="middle" x="860" y="-99.8" font-family="Times,serif" font-size="14.00">IncidentsCircleGraphicComponent</text>
</g>
<!-- IncidentsCircleGraphicComponent&#45;&gt;SharedModule -->
<g id="edge3" class="edge">
<title>IncidentsCircleGraphicComponent&#45;&gt;SharedModule</title>
<path fill="none" stroke="black" d="M820,-122.11C820,-122.11 820,-140.99 820,-140.99"/>
<polygon fill="black" stroke="black" points="816.5,-140.99 820,-150.99 823.5,-140.99 816.5,-140.99"/>
</g>
<!-- IncidentsInfoComponent -->
<g id="node4" class="node">
<title>IncidentsInfoComponent</title>
<polygon fill="#ffffb3" stroke="black" points="735.97,-122 580.03,-122 580.03,-86 735.97,-86 735.97,-122"/>
<text text-anchor="middle" x="658" y="-99.8" font-family="Times,serif" font-size="14.00">IncidentsInfoComponent</text>
</g>
<!-- IncidentsInfoComponent&#45;&gt;SharedModule -->
<g id="edge4" class="edge">
<title>IncidentsInfoComponent&#45;&gt;SharedModule</title>
<path fill="none" stroke="black" d="M718.12,-122.19C718.12,-137.18 718.12,-156 718.12,-156 718.12,-156 760.55,-156 760.55,-156"/>
<polygon fill="black" stroke="black" points="760.55,-159.5 770.55,-156 760.55,-152.5 760.55,-159.5"/>
</g>
<!-- PictureSelectableComponent -->
<g id="node5" class="node">
<title>PictureSelectableComponent</title>
<polygon fill="#ffffb3" stroke="black" points="562.01,-122 383.99,-122 383.99,-86 562.01,-86 562.01,-122"/>
<text text-anchor="middle" x="473" y="-99.8" font-family="Times,serif" font-size="14.00">PictureSelectableComponent</text>
</g>
<!-- PictureSelectableComponent&#45;&gt;SharedModule -->
<g id="edge5" class="edge">
<title>PictureSelectableComponent&#45;&gt;SharedModule</title>
<path fill="none" stroke="black" d="M531.12,-122.03C531.12,-138.4 531.12,-160 531.12,-160 531.12,-160 760.67,-160 760.67,-160"/>
<polygon fill="black" stroke="black" points="760.67,-163.5 770.67,-160 760.67,-156.5 760.67,-163.5"/>
</g>
<!-- UserCircleGraphicComponent -->
<g id="node6" class="node">
<title>UserCircleGraphicComponent</title>
<polygon fill="#ffffb3" stroke="black" points="365.55,-122 178.45,-122 178.45,-86 365.55,-86 365.55,-122"/>
<text text-anchor="middle" x="272" y="-99.8" font-family="Times,serif" font-size="14.00">UserCircleGraphicComponent</text>
</g>
<!-- UserCircleGraphicComponent&#45;&gt;SharedModule -->
<g id="edge6" class="edge">
<title>UserCircleGraphicComponent&#45;&gt;SharedModule</title>
<path fill="none" stroke="black" d="M328.62,-122.3C328.62,-140.27 328.62,-165 328.62,-165 328.62,-165 760.64,-165 760.64,-165"/>
<polygon fill="black" stroke="black" points="760.64,-168.5 770.64,-165 760.64,-161.5 760.64,-168.5"/>
</g>
<!-- UsersInfoComponent -->
<g id="node7" class="node">
<title>UsersInfoComponent</title>
<polygon fill="#ffffb3" stroke="black" points="160.03,-122 23.97,-122 23.97,-86 160.03,-86 160.03,-122"/>
<text text-anchor="middle" x="92" y="-99.8" font-family="Times,serif" font-size="14.00">UsersInfoComponent</text>
</g>
<!-- UsersInfoComponent&#45;&gt;SharedModule -->
<g id="edge7" class="edge">
<title>UsersInfoComponent&#45;&gt;SharedModule</title>
<path fill="none" stroke="black" d="M147.12,-122.11C147.12,-141.34 147.12,-169 147.12,-169 147.12,-169 760.52,-169 760.52,-169"/>
<polygon fill="black" stroke="black" points="760.52,-172.5 770.52,-169 760.52,-165.5 760.52,-172.5"/>
</g>
<!-- CategoriesInfoComponent  -->
<g id="node10" class="node">
<title>CategoriesInfoComponent </title>
<polygon fill="#fb8072" stroke="black" points="1467.02,-252 1298.98,-252 1298.98,-216 1467.02,-216 1467.02,-252"/>
<text text-anchor="middle" x="1383" y="-229.8" font-family="Times,serif" font-size="14.00">CategoriesInfoComponent </text>
</g>
<!-- SharedModule&#45;&gt;CategoriesInfoComponent  -->
<g id="edge10" class="edge">
<title>SharedModule&#45;&gt;CategoriesInfoComponent </title>
<path fill="none" stroke="black" stroke-dasharray="5,2" d="M869.38,-177C994.87,-177 1316.12,-177 1316.12,-177 1316.12,-177 1316.12,-205.96 1316.12,-205.96"/>
<polygon fill="black" stroke="black" points="1312.63,-205.96 1316.12,-215.96 1319.63,-205.96 1312.63,-205.96"/>
</g>
<!-- ConfirmDialogComponent  -->
<g id="node11" class="node">
<title>ConfirmDialogComponent </title>
<polygon fill="#fb8072" stroke="black" points="1281.37,-252 1110.63,-252 1110.63,-216 1281.37,-216 1281.37,-252"/>
<text text-anchor="middle" x="1196" y="-229.8" font-family="Times,serif" font-size="14.00">ConfirmDialogComponent </text>
</g>
<!-- SharedModule&#45;&gt;ConfirmDialogComponent  -->
<g id="edge11" class="edge">
<title>SharedModule&#45;&gt;ConfirmDialogComponent </title>
<path fill="none" stroke="black" stroke-dasharray="5,2" d="M869.22,-182C956.81,-182 1130.62,-182 1130.62,-182 1130.62,-182 1130.62,-205.81 1130.62,-205.81"/>
<polygon fill="black" stroke="black" points="1127.13,-205.81 1130.62,-215.81 1134.13,-205.81 1127.13,-205.81"/>
</g>
<!-- IncidentsCircleGraphicComponent  -->
<g id="node12" class="node">
<title>IncidentsCircleGraphicComponent </title>
<polygon fill="#fb8072" stroke="black" points="1092.94,-252 877.06,-252 877.06,-216 1092.94,-216 1092.94,-252"/>
<text text-anchor="middle" x="985" y="-229.8" font-family="Times,serif" font-size="14.00">IncidentsCircleGraphicComponent </text>
</g>
<!-- SharedModule&#45;&gt;IncidentsCircleGraphicComponent  -->
<g id="edge12" class="edge">
<title>SharedModule&#45;&gt;IncidentsCircleGraphicComponent </title>
<path fill="none" stroke="black" stroke-dasharray="5,2" d="M864.47,-187.11C864.47,-206.34 864.47,-234 864.47,-234 864.47,-234 866.92,-234 866.92,-234"/>
<polygon fill="black" stroke="black" points="866.92,-237.5 876.92,-234 866.92,-230.5 866.92,-237.5"/>
</g>
<!-- IncidentsInfoComponent  -->
<g id="node13" class="node">
<title>IncidentsInfoComponent </title>
<polygon fill="#fb8072" stroke="black" points="859.97,-252 700.03,-252 700.03,-216 859.97,-216 859.97,-252"/>
<text text-anchor="middle" x="780" y="-229.8" font-family="Times,serif" font-size="14.00">IncidentsInfoComponent </text>
</g>
<!-- SharedModule&#45;&gt;IncidentsInfoComponent  -->
<g id="edge13" class="edge">
<title>SharedModule&#45;&gt;IncidentsInfoComponent </title>
<path fill="none" stroke="black" stroke-dasharray="5,2" d="M815.26,-187.11C815.26,-187.11 815.26,-205.99 815.26,-205.99"/>
<polygon fill="black" stroke="black" points="811.76,-205.99 815.26,-215.99 818.76,-205.99 811.76,-205.99"/>
</g>
<!-- PictureSelectableComponent  -->
<g id="node14" class="node">
<title>PictureSelectableComponent </title>
<polygon fill="#fb8072" stroke="black" points="682.01,-252 499.99,-252 499.99,-216 682.01,-216 682.01,-252"/>
<text text-anchor="middle" x="591" y="-229.8" font-family="Times,serif" font-size="14.00">PictureSelectableComponent </text>
</g>
<!-- SharedModule&#45;&gt;PictureSelectableComponent  -->
<g id="edge14" class="edge">
<title>SharedModule&#45;&gt;PictureSelectableComponent </title>
<path fill="none" stroke="black" stroke-dasharray="5,2" d="M770.35,-183C714.35,-183 631.01,-183 631.01,-183 631.01,-183 631.01,-205.88 631.01,-205.88"/>
<polygon fill="black" stroke="black" points="627.51,-205.88 631.01,-215.88 634.51,-205.88 627.51,-205.88"/>
</g>
<!-- UserCircleGraphicComponent  -->
<g id="node15" class="node">
<title>UserCircleGraphicComponent </title>
<polygon fill="#fb8072" stroke="black" points="482.05,-252 291.95,-252 291.95,-216 482.05,-216 482.05,-252"/>
<text text-anchor="middle" x="387" y="-229.8" font-family="Times,serif" font-size="14.00">UserCircleGraphicComponent </text>
</g>
<!-- SharedModule&#45;&gt;UserCircleGraphicComponent  -->
<g id="edge15" class="edge">
<title>SharedModule&#45;&gt;UserCircleGraphicComponent </title>
<path fill="none" stroke="black" stroke-dasharray="5,2" d="M770.59,-178C666.27,-178 433.01,-178 433.01,-178 433.01,-178 433.01,-205.97 433.01,-205.97"/>
<polygon fill="black" stroke="black" points="429.51,-205.97 433.01,-215.97 436.51,-205.97 429.51,-205.97"/>
</g>
<!-- UsersInfoComponent  -->
<g id="node16" class="node">
<title>UsersInfoComponent </title>
<polygon fill="#fb8072" stroke="black" points="274.02,-252 133.98,-252 133.98,-216 274.02,-216 274.02,-252"/>
<text text-anchor="middle" x="204" y="-229.8" font-family="Times,serif" font-size="14.00">UsersInfoComponent </text>
</g>
<!-- SharedModule&#45;&gt;UsersInfoComponent  -->
<g id="edge16" class="edge">
<title>SharedModule&#45;&gt;UsersInfoComponent </title>
<path fill="none" stroke="black" stroke-dasharray="5,2" d="M770.65,-174C628.17,-174 226.24,-174 226.24,-174 226.24,-174 226.24,-206 226.24,-206"/>
<polygon fill="black" stroke="black" points="222.74,-206 226.24,-216 229.74,-206 222.74,-206"/>
</g>
<!-- ShortenTextPipe -->
<g id="node9" class="node">
<title>ShortenTextPipe</title>
<polygon fill="#8dd3c7" stroke="black" points="1467.09,-122 1464.09,-126 1443.09,-126 1440.09,-122 1356.91,-122 1356.91,-86 1467.09,-86 1467.09,-122"/>
<text text-anchor="middle" x="1412" y="-99.8" font-family="Times,serif" font-size="14.00">ShortenTextPipe</text>
</g>
<!-- ShortenTextPipe&#45;&gt;SharedModule -->
<g id="edge8" class="edge">
<title>ShortenTextPipe&#45;&gt;SharedModule</title>
<path fill="none" stroke="black" d="M1393.64,-122.22C1393.64,-140.83 1393.64,-167 1393.64,-167 1393.64,-167 879.4,-167 879.4,-167"/>
<polygon fill="black" stroke="black" points="879.4,-163.5 869.4,-167 879.4,-170.5 879.4,-163.5"/>
</g>
<!-- ShortenTextPipe&#45;&gt;SharedModule -->
<g id="edge9" class="edge">
<title>ShortenTextPipe&#45;&gt;SharedModule</title>
<path fill="none" stroke="black" d="M1430.32,-122.22C1430.32,-142.37 1430.32,-172 1430.32,-172 1430.32,-172 879.43,-172 879.43,-172"/>
<polygon fill="black" stroke="black" points="879.43,-168.5 869.43,-172 879.43,-175.5 879.43,-168.5"/>
</g>
</g>
</svg>
